<svg width="93" height="84" viewBox="0 0 93 84" fill="none" xmlns="http://www.w3.org/2000/svg">
<rect x="75.25" y="34.75" width="6.5" height="16.5" rx="1.75" transform="rotate(-90 75.25 34.75)" fill="white" stroke="#0A84FF" stroke-width="1.5"/>
<rect x="72.25" y="56.75" width="9.5" height="16.5" rx="1.75" transform="rotate(-90 72.25 56.75)" fill="white" stroke="#0A84FF" stroke-width="1.5"/>
<rect x="1" y="1" width="82" height="82" rx="4" fill="white" stroke="#0A84FF" stroke-width="2"/>
<path d="M57.2035 38.0059H54.3909C53.8394 38.0067 53.3107 38.2264 52.9211 38.6167C52.5314 39.007 52.3125 39.536 52.3125 40.0875V43.9116C52.3125 44.1845 52.3663 44.4548 52.4707 44.707C52.5752 44.9591 52.7283 45.1883 52.9213 45.3813C53.1143 45.5743 53.3434 45.7273 53.5955 45.8318C53.8477 45.9362 54.118 45.99 54.3909 45.99H57.2035C57.755 45.99 58.284 45.7711 58.6743 45.3815C59.0646 44.9918 59.2843 44.4631 59.2852 43.9116V40.0875C59.2852 39.5354 59.0658 39.006 58.6754 38.6156C58.2851 38.2252 57.7556 38.0059 57.2035 38.0059ZM57.7908 43.7256C57.7912 43.8268 57.7716 43.9272 57.733 44.0208C57.6945 44.1144 57.6378 44.1995 57.5662 44.2711C57.4946 44.3426 57.4096 44.3994 57.3159 44.4379C57.2223 44.4764 57.122 44.4961 57.0208 44.4956H54.5736C54.4724 44.4961 54.3721 44.4764 54.2785 44.4379C54.1848 44.3994 54.0998 44.3426 54.0282 44.2711C53.9566 44.1995 53.8999 44.1144 53.8613 44.0208C53.8228 43.9272 53.8032 43.8268 53.8036 43.7256V40.2801C53.8036 40.0758 53.8847 39.88 54.0291 39.7356C54.1736 39.5912 54.3694 39.51 54.5736 39.51H57.0208C57.225 39.51 57.4208 39.5912 57.5652 39.7356C57.7097 39.88 57.7908 40.0758 57.7908 40.2801V43.7256Z" fill="#0A84FF"/>
<path d="M48.8735 38.0176H44.4034C44.3465 38.0176 44.2903 38.0288 44.2378 38.0507C44.1853 38.0725 44.1377 38.1045 44.0977 38.1449C44.0576 38.1852 44.026 38.2331 44.0045 38.2857C43.9831 38.3383 43.9722 38.3947 43.9727 38.4515V45.5612C43.9727 45.6755 44.018 45.785 44.0988 45.8658C44.1796 45.9465 44.2891 45.9919 44.4034 45.9919H48.8343C49.1137 45.9919 49.3903 45.9369 49.6484 45.83C49.9065 45.7231 50.141 45.5664 50.3386 45.3688C50.5361 45.1713 50.6928 44.9368 50.7997 44.6787C50.9066 44.4206 50.9617 44.1439 50.9617 43.8646V40.1058C50.9617 39.552 50.7417 39.0208 50.35 38.6292C49.9584 38.2376 49.4273 38.0176 48.8735 38.0176ZM49.4706 43.7243C49.4706 43.8258 49.4506 43.9264 49.4117 44.0202C49.3728 44.114 49.3159 44.1993 49.2441 44.2711C49.1723 44.3429 49.087 44.3998 48.9932 44.4387C48.8994 44.4775 48.7988 44.4976 48.6973 44.4976H45.6889C45.6318 44.4976 45.577 44.4749 45.5366 44.4345C45.4963 44.3941 45.4736 44.3393 45.4736 44.2822V39.7273C45.4736 39.6685 45.497 39.612 45.5386 39.5704C45.5802 39.5288 45.6366 39.5054 45.6954 39.5054H48.7168C48.8156 39.5032 48.9138 39.5209 49.0056 39.5574C49.0974 39.5939 49.1809 39.6484 49.2512 39.7178C49.3215 39.7872 49.3771 39.87 49.4148 39.9613C49.4525 40.0526 49.4715 40.1506 49.4706 40.2494V43.7243Z" fill="#0A84FF"/>
<path d="M37.0716 39.51H42.0017C42.1007 39.5092 42.1953 39.4693 42.2649 39.399C42.3346 39.3287 42.3737 39.2338 42.3737 39.1348V38.3811C42.3741 38.332 42.3648 38.2832 42.3463 38.2377C42.3278 38.1922 42.3005 38.1508 42.2659 38.116C42.2313 38.0811 42.1902 38.0534 42.1448 38.0345C42.0995 38.0156 42.0508 38.0059 42.0017 38.0059H36.915C36.7176 38.0059 36.5222 38.0448 36.3398 38.1204C36.1575 38.1961 35.9919 38.3069 35.8525 38.4466C35.7131 38.5863 35.6026 38.7522 35.5274 38.9347C35.4521 39.1171 35.4136 39.3126 35.4141 39.51V44.5576C35.4293 44.9454 35.5941 45.3123 35.8739 45.5812C36.1538 45.85 36.5269 46.0001 36.915 45.9998H42.0017C42.0506 45.9998 42.0989 45.9902 42.1441 45.9715C42.1892 45.9528 42.2302 45.9254 42.2647 45.8908C42.2993 45.8563 42.3267 45.8153 42.3454 45.7702C42.3641 45.725 42.3737 45.6767 42.3737 45.6278V44.8643C42.3737 44.7654 42.3346 44.6704 42.2649 44.6001C42.1953 44.5299 42.1007 44.49 42.0017 44.4891H37.0716C37.0266 44.4891 36.9834 44.4712 36.9516 44.4394C36.9198 44.4076 36.9019 44.3644 36.9019 44.3194V42.9197C36.9019 42.8747 36.9198 42.8315 36.9516 42.7997C36.9834 42.7679 37.0266 42.75 37.0716 42.75H41.9985C42.048 42.75 42.0971 42.7402 42.1428 42.7211C42.1885 42.7021 42.2301 42.6741 42.2649 42.639C42.2998 42.6038 42.3274 42.562 42.3461 42.5161C42.3647 42.4702 42.3741 42.4211 42.3737 42.3715V41.6243C42.3741 41.5749 42.3647 41.526 42.346 41.4802C42.3273 41.4345 42.2997 41.393 42.2648 41.358C42.2298 41.3231 42.1883 41.2955 42.1426 41.2768C42.0968 41.2581 42.0479 41.2487 41.9985 41.2491H37.0716C37.0266 41.2491 36.9834 41.2312 36.9516 41.1994C36.9198 41.1676 36.9019 41.1244 36.9019 41.0794V39.6764C36.9019 39.6543 36.9063 39.6324 36.9149 39.612C36.9235 39.5916 36.936 39.5731 36.9518 39.5576C36.9676 39.5421 36.9863 39.5299 37.0069 39.5217C37.0275 39.5136 37.0495 39.5096 37.0716 39.51Z" fill="#0A84FF"/>
<path d="M33.9663 39.5237C33.9684 39.166 33.8435 38.8192 33.6139 38.5449C33.4742 38.3744 33.2985 38.2371 33.0993 38.1429C32.9001 38.0487 32.6825 37.9999 32.4621 38H26.4879C26.2919 38 26.0979 38.0387 25.917 38.1139C25.736 38.1891 25.5717 38.2992 25.4335 38.4381C25.2952 38.5769 25.1858 38.7417 25.1114 38.923C25.037 39.1043 24.9992 39.2984 25 39.4944V45.5991C25 45.7047 25.042 45.8059 25.1166 45.8806C25.1913 45.9552 25.2925 45.9972 25.3981 45.9972H26.0898C26.1954 45.9972 26.2966 45.9552 26.3713 45.8806C26.4459 45.8059 26.4879 45.7047 26.4879 45.5991V39.6575C26.4886 39.6191 26.5038 39.5823 26.5304 39.5545C26.557 39.5267 26.593 39.5099 26.6314 39.5074H28.5891C28.6292 39.5074 28.6678 39.5231 28.6964 39.5512C28.7251 39.5792 28.7416 39.6174 28.7425 39.6575V45.6154C28.7425 45.7175 28.783 45.8155 28.8553 45.8877C28.9275 45.9599 29.0254 46.0004 29.1275 46.0004H29.8421C29.9428 45.9979 30.0386 45.9563 30.1092 45.8845C30.1798 45.8127 30.2197 45.7162 30.2205 45.6154V39.6575C30.2205 39.6177 30.2364 39.5795 30.2645 39.5514C30.2927 39.5232 30.3308 39.5074 30.3706 39.5074H32.3283C32.3903 39.5074 32.4654 39.5401 32.4654 39.5988V45.5991C32.4654 45.7047 32.5073 45.8059 32.582 45.8806C32.6566 45.9552 32.7579 45.9972 32.8634 45.9972H33.5552C33.662 45.9972 33.7646 45.9557 33.8413 45.8814C33.9181 45.8071 33.9629 45.7059 33.9663 45.5991V39.726V39.5237Z" fill="#0A84FF"/>
</svg>
