<svg width="26" height="35" viewBox="0 0 26 35" fill="none" xmlns="http://www.w3.org/2000/svg">
<path d="M25.3581 10.8242L25.341 10.8072L14.5245 0.653607C13.6393 -0.217869 12.2108 -0.217869 11.3256 0.653607L0.505675 10.8072C0.49884 10.8106 0.495423 10.8174 0.488588 10.8242C0.0101304 11.2993 -0.129989 12.0101 0.126328 12.6321C0.382644 13.2575 0.987551 13.6608 1.66423 13.6608H7.39204C7.48773 13.6608 7.56292 13.736 7.56292 13.8283V26.6236C7.56292 27.8744 8.58477 28.8928 9.83901 28.8928H16.0077C17.2619 28.8928 18.2838 27.8744 18.2838 26.6236V13.8283C18.2838 13.736 18.359 13.6608 18.4547 13.6608H24.1825C24.8591 13.6608 25.4641 13.2575 25.7204 12.6321C25.9801 12.0101 25.8366 11.2993 25.3581 10.8242ZM24.3431 12.0614C24.3158 12.1297 24.2611 12.1673 24.1859 12.1673H18.4547C17.5388 12.1673 16.7903 12.9124 16.7903 13.8283V26.6236C16.7903 27.0508 16.4383 27.3994 16.0077 27.3994H9.84243C9.41181 27.3994 9.05981 27.0508 9.05981 26.6236V13.8283C9.05981 12.9124 8.31478 12.1673 7.39546 12.1673H1.66764C1.59246 12.1673 1.53778 12.1332 1.51044 12.0614C1.4831 11.9965 1.49335 11.9384 1.54119 11.8871L12.3577 1.73697C12.3646 1.73355 12.368 1.72672 12.3748 1.71988C12.679 1.41572 13.178 1.41572 13.4821 1.71988L13.4992 1.73697L24.3158 11.8871C24.3568 11.9384 24.3704 11.9965 24.3431 12.0614ZM17.4909 30.4307H8.35921C7.93885 30.4307 7.59709 30.7725 7.59709 31.1928C7.59709 31.6132 7.93885 31.955 8.35921 31.955H17.4943C17.9147 31.955 18.2564 31.6132 18.2564 31.1928C18.253 30.7691 17.9113 30.4307 17.4909 30.4307ZM17.4909 33.4758H8.35921C7.93885 33.4758 7.59709 33.8175 7.59709 34.2379C7.59709 34.6582 7.93885 35 8.35921 35H17.4943C17.9147 35 18.2564 34.6582 18.2564 34.2379C18.2564 33.8175 17.9113 33.4758 17.4909 33.4758Z" fill="#0A84FF"/>
</svg>
