<svg width="35" height="35" viewBox="0 0 35 35" fill="none" xmlns="http://www.w3.org/2000/svg">
<path opacity="0.01" d="M0 0H35V35H0V0Z" fill="#0A84FF"/>
<path d="M22.6556 3.80924L17.4954 8.96824L23.4454 14.9182C23.5737 15.0466 23.6904 15.1819 23.7954 15.3242L28.8377 10.0322L28.8576 10.0112C29.0552 9.81348 29.1662 9.54533 29.1662 9.26574C29.1662 8.98616 29.0552 8.71801 28.8576 8.52024L24.1466 3.80924C23.9488 3.61162 23.6807 3.5006 23.4011 3.5006C23.1215 3.5006 22.8533 3.61162 22.6556 3.80924ZM15.8457 7.31858L21.0047 2.15841C21.3194 1.84378 21.6928 1.59421 22.1039 1.42393C22.515 1.25366 22.9556 1.16602 23.4005 1.16602C23.8454 1.16602 24.286 1.25366 24.6971 1.42393C25.1081 1.59421 25.4816 1.84378 25.7962 2.15841L30.5072 6.87058C31.1407 7.50393 31.4975 8.36235 31.4997 9.25809C31.5018 10.1538 31.1492 11.014 30.5189 11.6504L24.4581 18.0111C24.3428 18.7674 23.9883 19.467 23.4466 20.0072L20.0072 23.4466C19.467 23.9883 18.7674 24.3428 18.0111 24.4581L11.6504 30.5201C11.014 31.1504 10.1538 31.503 9.25809 31.5008C8.36235 31.4986 7.50393 31.1418 6.87058 30.5084L2.15841 25.7962C1.84378 25.4816 1.59421 25.1081 1.42393 24.6971C1.25366 24.286 1.16602 23.8454 1.16602 23.4005C1.16602 22.9556 1.25366 22.515 1.42393 22.1039C1.59421 21.6928 1.84378 21.3194 2.15841 21.0047L7.31858 15.8457L3.38691 11.9141C2.71231 11.2393 2.33333 10.3243 2.33333 9.37016C2.33333 8.41604 2.71231 7.50098 3.38691 6.82624L6.82624 3.38691C7.50098 2.71231 8.41604 2.33333 9.37016 2.33333C10.3243 2.33333 11.2393 2.71231 11.9141 3.38691L15.8457 7.31858ZM8.96824 17.4954L3.80924 22.6567C3.61162 22.8545 3.5006 23.1227 3.5006 23.4022C3.5006 23.6818 3.61162 23.95 3.80924 24.1477L8.52024 28.8587C8.71801 29.0564 8.98616 29.1674 9.26574 29.1674C9.54533 29.1674 9.81348 29.0564 10.0112 28.8587L10.0322 28.8389L15.3242 23.7966C15.1809 23.69 15.0456 23.573 14.9194 23.4466L8.96941 17.4966L8.96824 17.4954ZM8.47591 5.03774L5.03774 8.47591C4.80057 8.71308 4.66734 9.03475 4.66734 9.37016C4.66734 9.70557 4.80057 10.0272 5.03774 10.2644L16.5691 21.7969C17.0626 22.2904 17.8641 22.2904 18.3576 21.7969L21.7969 18.3576C22.0341 18.1204 22.1673 17.7987 22.1673 17.4633C22.1673 17.1279 22.0341 16.8062 21.7969 16.5691L10.2644 5.03774C10.0272 4.80057 9.70557 4.66734 9.37016 4.66734C9.03475 4.66734 8.71308 4.80057 8.47591 5.03774ZM28.0001 17.5001C28.3095 17.5001 28.6062 17.623 28.825 17.8418C29.0438 18.0606 29.1667 18.3573 29.1667 18.6667C29.1667 20.0456 28.8952 21.411 28.3675 22.6849C27.8398 23.9588 27.0664 25.1163 26.0914 26.0914C25.1163 27.0664 23.9588 27.8398 22.6849 28.3675C21.411 28.8952 20.0456 29.1667 18.6667 29.1667C18.3573 29.1667 18.0606 29.0438 17.8418 28.825C17.623 28.6062 17.5001 28.3095 17.5001 28.0001C17.5001 27.6907 17.623 27.3939 17.8418 27.1751C18.0606 26.9563 18.3573 26.8334 18.6667 26.8334C20.8326 26.8331 22.9096 25.9726 24.4411 24.4411C25.9726 22.9096 26.8331 20.8326 26.8334 18.6667C26.8334 18.3573 26.9563 18.0606 27.1751 17.8418C27.3939 17.623 27.6907 17.5001 28.0001 17.5001ZM33.8334 18.6667C33.8334 18.3573 33.7105 18.0606 33.4917 17.8418C33.2729 17.623 32.9762 17.5001 32.6667 17.5001C32.3573 17.5001 32.0606 17.623 31.8418 17.8418C31.623 18.0606 31.5001 18.3573 31.5001 18.6667C31.5001 20.352 31.1681 22.0208 30.5232 23.5778C29.8783 25.1349 28.933 26.5496 27.7413 27.7413C26.5496 28.933 25.1349 29.8783 23.5778 30.5232C22.0208 31.1681 20.352 31.5001 18.6667 31.5001C18.3573 31.5001 18.0606 31.623 17.8418 31.8418C17.623 32.0606 17.5001 32.3573 17.5001 32.6667C17.5001 32.9762 17.623 33.2729 17.8418 33.4917C18.0606 33.7105 18.3573 33.8334 18.6667 33.8334C20.6585 33.8334 22.6307 33.4411 24.4708 32.6789C26.3109 31.9167 27.9828 30.7996 29.3912 29.3912C30.7996 27.9828 31.9167 26.3109 32.6789 24.4708C33.4411 22.6307 33.8334 20.6585 33.8334 18.6667Z" fill="#0A84FF"/>
</svg>
