<svg width="40" height="35" viewBox="0 0 40 35" fill="none" xmlns="http://www.w3.org/2000/svg">
<path d="M27.2115 28.3994C24.7677 30.2094 21.7381 31.0449 18.7181 30.7376C18.5789 30.7232 18.4396 30.6992 18.2956 30.68C18.0267 30.6415 17.7531 30.6031 17.489 30.5503C17.3257 30.5167 17.1673 30.4783 17.0041 30.4351C16.7448 30.3775 16.4903 30.3103 16.2359 30.2286C16.1158 30.1902 15.9958 30.147 15.8758 30.1038C15.1748 29.8637 14.4978 29.5613 13.8544 29.1964L13.8112 29.1724C12.3901 28.3514 11.1321 27.2711 10.1143 25.9843C10.0663 25.9219 10.0134 25.8499 9.96544 25.7827C8.15056 23.4013 7.16631 20.4869 7.17591 17.4957H10.1287C10.2103 17.4957 10.2823 17.4525 10.3207 17.3805C10.3591 17.3085 10.3543 17.2221 10.3111 17.1548L5.35144 9.37683C5.31303 9.31442 5.24581 9.27601 5.17379 9.27601C5.10177 9.27601 5.03456 9.31442 4.99615 9.37683L0.0364595 17.1548C-0.00675166 17.2221 -0.0115531 17.3085 0.0220557 17.3805C0.0604656 17.4573 0.132484 17.4957 0.214105 17.4957H3.16207C3.16207 21.1831 4.26156 24.5968 6.12924 27.4151C6.15325 27.4583 6.16765 27.4967 6.19166 27.5351C6.38851 27.8232 6.59976 28.0921 6.81102 28.3658C6.88784 28.4666 6.95986 28.5722 7.04148 28.6778C7.34876 29.0667 7.67044 29.4268 8.00653 29.7869L8.09775 29.8829C9.54773 31.4097 11.2762 32.6389 13.1919 33.5175L13.4992 33.6615C13.8496 33.8152 14.2193 33.9496 14.5794 34.0744C14.7523 34.1369 14.9203 34.1993 15.098 34.2521C15.4197 34.3529 15.7461 34.4297 16.0774 34.5162C16.2983 34.569 16.5143 34.6266 16.74 34.6698C16.8312 34.6938 16.9128 34.7178 17.0089 34.737C17.3209 34.7946 17.6282 34.8282 17.9451 34.8666L18.2812 34.9147C22.2806 35.3276 26.2945 34.2329 29.5257 31.8323C30.4379 31.1409 30.6588 29.8589 30.0202 28.9083C29.7226 28.457 29.252 28.1449 28.7191 28.0441C28.191 27.9577 27.6436 28.0825 27.2115 28.3994ZM36.6652 17.5053C36.67 13.9908 35.6473 10.5483 33.7172 7.60997C33.6884 7.56196 33.6692 7.51395 33.6404 7.47074C33.4051 7.13465 33.1651 6.80337 32.9058 6.48168L32.8194 6.36645C31.1629 4.2491 29.0168 2.56387 26.5681 1.45478C26.5009 1.42597 26.4337 1.39236 26.3665 1.35875C25.9776 1.19551 25.5887 1.04667 25.1902 0.907436C25.0413 0.859423 24.8973 0.801808 24.7485 0.758597C24.4028 0.65297 24.0523 0.556945 23.697 0.475324C23.5001 0.432113 23.3033 0.379298 23.1064 0.336087C23.0104 0.316882 22.9192 0.288075 22.8232 0.264068C22.5591 0.216056 22.2902 0.196852 22.0262 0.163243C21.8485 0.139237 21.6613 0.110429 21.4788 0.0864226C21.0371 0.0432114 20.5954 0.0240064 20.1537 0.0144039C20.0721 0.0144039 19.9904 0 19.9088 0C16.4519 0 13.0862 1.10909 10.3063 3.16402C9.38929 3.8506 9.17323 5.13733 9.80699 6.08798C10.1047 6.5393 10.5752 6.85138 11.1081 6.9522C11.6363 7.04823 12.1836 6.9234 12.6109 6.60171C15.0596 4.79164 18.0939 3.95623 21.1235 4.26351L21.4596 4.31152C21.7669 4.34513 22.0646 4.39314 22.3575 4.45556C22.4871 4.47956 22.6167 4.51317 22.7463 4.54678C23.0344 4.614 23.3273 4.69082 23.6106 4.77724L23.8746 4.87326C24.2011 4.98369 24.5132 5.09892 24.8301 5.23816L24.9261 5.28617C26.8034 6.13599 28.4502 7.42753 29.7226 9.04555L29.7466 9.07915C31.6287 11.4846 32.6465 14.4517 32.6369 17.5053H29.689C29.6073 17.5053 29.5353 17.5486 29.4969 17.6206C29.4585 17.6926 29.4633 17.779 29.5113 17.8462L34.4758 25.6242C34.5142 25.6867 34.5814 25.7251 34.6534 25.7251C34.7255 25.7251 34.7927 25.6867 34.8311 25.6242L39.7908 17.851C39.7956 17.8462 39.8004 17.8366 39.8052 17.8318C39.9108 17.6974 39.81 17.5005 39.6371 17.5053H36.6652Z" fill="#0A84FF"/>
</svg>
