<svg width="38" height="35" viewBox="0 0 38 35" fill="none" xmlns="http://www.w3.org/2000/svg">
<path d="M36.1644 20.2516H31.5088V19.4209C31.5088 18.952 31.4862 18.4944 31.4414 18.0425H36.17C36.4571 18.052 36.7293 18.1729 36.9287 18.3796C37.1282 18.5863 37.2394 18.8625 37.2387 19.1498C37.2379 19.4371 37.1253 19.7128 36.9248 19.9184C36.7243 20.1241 36.4515 20.2436 36.1644 20.2516ZM28.4788 10.9396C28.011 10.3748 27.4976 9.84945 26.9439 9.36868L30.3863 5.82596C30.4851 5.72271 30.6037 5.64054 30.7351 5.58441C30.8666 5.52827 31.008 5.49933 31.1509 5.49933C31.2938 5.49933 31.4352 5.52827 31.5666 5.58441C31.698 5.64054 31.8167 5.72271 31.9155 5.82596C32.1191 6.03784 32.2329 6.32033 32.2329 6.61423C32.2329 6.90812 32.1191 7.19061 31.9155 7.4025L28.4788 10.9396ZM29.3589 32.7847H31.8645C32.0098 32.7894 32.1528 32.8227 32.2853 32.8827C32.4177 32.9427 32.5371 33.0282 32.6365 33.1343C32.7359 33.2404 32.8134 33.365 32.8647 33.5011C32.9159 33.6372 32.9398 33.782 32.9351 33.9274C32.9263 34.2087 32.8108 34.4762 32.612 34.6754C32.4131 34.8747 32.1458 34.9907 31.8645 35H5.37105C5.0775 34.9903 4.79981 34.8645 4.59905 34.6501C4.39829 34.4357 4.29088 34.1504 4.30046 33.8568C4.30909 33.5755 4.4246 33.308 4.6235 33.1088C4.82239 32.9096 5.08971 32.7937 5.37105 32.7847H7.87663V19.5115C7.71553 13.5697 12.3952 8.62235 18.3293 8.46125C24.2628 8.30015 29.204 12.986 29.3646 18.9283C29.3702 19.1224 29.3702 19.3169 29.3646 19.5115L29.3589 32.7847ZM27.2146 20.2516C27.348 15.4988 23.6086 11.0229 18.862 10.8896C14.1154 10.7563 10.1599 15.0155 10.0266 19.7688C10.0219 19.9294 10.0219 20.0905 10.0266 20.2516V32.7847H27.2146V20.2516ZM18.8069 15.539C18.9059 15.4371 19.0244 15.3562 19.1552 15.3009C19.286 15.2456 19.4267 15.2171 19.5687 15.2171C19.7107 15.2171 19.8513 15.2456 19.9822 15.3009C20.113 15.3562 20.2315 15.4371 20.3305 15.539C20.752 15.978 20.752 16.6713 20.3305 17.1099L17.9942 19.5115H21.854C21.9967 19.5133 22.1377 19.5433 22.2688 19.5997C22.4 19.6561 22.5187 19.7378 22.6183 19.8401C22.7178 19.9423 22.7963 20.0633 22.8491 20.1959C22.9019 20.3285 22.9281 20.4702 22.9261 20.6129V20.6191C22.9277 20.7684 22.8988 20.9161 22.8417 21.054C22.9044 21.2524 22.9129 21.464 22.8662 21.6667C22.8195 21.8695 22.7193 22.056 22.5761 22.207L18.3669 26.5465C18.2663 26.6503 18.1463 26.7334 18.0137 26.7908C17.8811 26.8482 17.7384 26.879 17.5939 26.8812C17.4494 26.8835 17.3058 26.8572 17.1715 26.8039C17.0371 26.7506 16.9146 26.6714 16.8109 26.5707L16.7867 26.5465C16.5751 26.3284 16.4567 26.0366 16.4567 25.7327C16.4567 25.4289 16.5751 25.137 16.7867 24.919L19.8847 21.7268H16.1207C15.6594 21.6058 15.2053 21.4585 14.7608 21.2857C14.5599 21.0746 14.4478 20.7944 14.4478 20.5031C14.4478 20.2117 14.5599 19.9315 14.7608 19.7204L18.8069 15.539ZM17.5598 6.29485V1.07368C17.5598 0.480735 18.04 0 18.6319 0C19.2238 0 19.7041 0.480735 19.7041 1.07368V6.29485C19.3427 6.26654 18.9876 6.23824 18.6206 6.23824C18.2536 6.23824 17.9098 6.26654 17.5598 6.29485ZM8.93744 10.7419L5.45546 7.1539C5.25444 6.94406 5.14222 6.6647 5.14222 6.37412C5.14222 6.08353 5.25444 5.80417 5.45546 5.59434C5.55319 5.4912 5.67091 5.40905 5.80144 5.35292C5.93196 5.29678 6.07256 5.26783 6.21465 5.26783C6.35674 5.26783 6.49733 5.29678 6.62786 5.35292C6.75839 5.40905 6.87611 5.4912 6.97384 5.59434L10.4836 9.205C9.92689 9.67397 9.40975 10.188 8.93744 10.7419ZM5.73237 19.4209V20.2516H1.07119C0.925823 20.2469 0.782807 20.2136 0.650318 20.1536C0.517829 20.0935 0.398463 20.008 0.299041 19.9019C0.199619 19.7957 0.12209 19.671 0.0708832 19.5348C0.0196763 19.3987 -0.00420436 19.2538 0.000605592 19.1085C0.00936075 18.8272 0.124934 18.5598 0.323815 18.3608C0.522695 18.1617 0.789944 18.0459 1.07119 18.0368H5.7998C5.75447 18.4968 5.73196 18.9587 5.73237 19.4209Z" fill="#0A84FF"/>
</svg>
