<svg width="35" height="35" viewBox="0 0 35 35" fill="none" xmlns="http://www.w3.org/2000/svg">
<path d="M29.504 0C26.6285 0 24.2974 2.33106 24.2974 5.20659C24.2974 5.75474 24.3823 6.28299 24.5394 6.7792L9.9917 14.8612L10.8345 16.3784L25.3332 8.32359C26.2827 9.59216 27.7975 10.4132 29.504 10.4132C32.3796 10.4132 34.7106 8.08212 34.7106 5.20659C34.7106 2.33106 32.3795 0 29.504 0ZM29.504 8.67766C27.59 8.67766 26.0329 7.12056 26.0329 5.20659C26.0329 3.29262 27.59 1.73552 29.504 1.73552C31.418 1.73552 32.9751 3.29262 32.9751 5.20659C32.9751 7.12056 31.418 8.67766 29.504 8.67766Z" fill="#0A84FF"/>
<path d="M25.9651 20.9798C23.3537 20.9798 21.0761 22.4077 19.8698 24.5253L11.1674 19.7886C11.2432 19.4161 11.2812 19.0371 11.281 18.657C11.281 16.7282 10.3126 15.0257 8.83569 14.0086L11.7705 7.12019C12.5042 7.01176 13.2108 6.67543 13.7756 6.11069C15.1734 4.7128 15.1734 2.44635 13.7756 1.04843C13.0766 0.34949 12.1605 0 11.2445 0C10.3284 0 9.41229 0.34949 8.71335 1.04843C7.31546 2.44632 7.31546 4.71276 8.71335 6.11069C9.07329 6.4712 9.50634 6.75036 9.9833 6.92936L7.22303 13.2419C6.70889 13.0921 6.17603 13.0162 5.6405 13.0165C2.52537 13.0165 0 15.5418 0 18.657C0 21.7722 2.52537 24.2975 5.6405 24.2975C7.74918 24.2975 9.58735 23.1402 10.5552 21.4262L19.2032 26.1362C19.0381 26.7403 18.9546 27.3637 18.955 27.9899C18.955 31.8615 22.0935 35 25.9651 35C29.8367 35 32.9752 31.8615 32.9752 27.9899C32.9752 24.1183 29.8366 20.9798 25.9651 20.9798ZM11.4978 7.15912L11.4804 7.15043C11.4918 7.14969 11.5032 7.14883 11.5146 7.14797L11.4978 7.15912ZM9.9405 2.27566C10.2888 1.92736 10.7519 1.73556 11.2444 1.73556C11.737 1.73556 12.2 1.92736 12.5483 2.27566C13.2673 2.99462 13.2673 4.1645 12.5483 4.88346C12.2 5.23176 11.7369 5.42356 11.2444 5.42356C10.7518 5.42356 10.2888 5.23176 9.9405 4.88346C9.22153 4.1645 9.22153 2.99462 9.9405 2.27566ZM5.6405 22.562C3.48729 22.562 1.73552 20.8102 1.73552 18.6571C1.73552 16.5039 3.48726 14.7521 5.6405 14.7521C7.79374 14.7521 9.54548 16.5039 9.54548 18.6571C9.54548 20.8102 7.7937 22.562 5.6405 22.562ZM29.6948 31.7195C28.6985 32.7158 27.3739 33.2644 25.9651 33.2644C24.5562 33.2644 23.2316 32.7158 22.2354 31.7195C21.2391 30.7233 20.6905 29.3987 20.6905 27.9898C20.6905 26.581 21.2391 25.2564 22.2354 24.2602C23.2316 23.2639 24.5562 22.7153 25.9651 22.7153C27.3739 22.7153 28.6985 23.2639 29.6948 24.2602C30.691 25.2564 31.2396 26.581 31.2396 27.9898C31.2396 29.3987 30.691 30.7233 29.6948 31.7195Z" fill="#0A84FF"/>
</svg>
