<svg width="35" height="35" viewBox="0 0 35 35" fill="none" xmlns="http://www.w3.org/2000/svg">
<path d="M17.5 0C7.83516 0 0 7.83516 0 17.5C0 27.1648 7.83516 35 17.5 35C27.1648 35 35 27.1648 35 17.5C35 7.83516 27.1648 0 17.5 0ZM17.5 31.875C9.56094 31.875 3.125 25.4391 3.125 17.5C3.125 9.56094 9.56094 3.125 17.5 3.125C25.4391 3.125 31.875 9.56094 31.875 17.5C31.875 25.4391 25.4391 31.875 17.5 31.875Z" fill="#0A84FF"/>
<path d="M24.375 15.9375H19.0625V8.125C19.0625 7.7106 18.8979 7.31317 18.6049 7.02015C18.3118 6.72712 17.9144 6.5625 17.5 6.5625C17.0856 6.5625 16.6882 6.72712 16.3951 7.02015C16.1021 7.31317 15.9375 7.7106 15.9375 8.125V17.5C15.9375 17.9144 16.1021 18.3118 16.3951 18.6049C16.6882 18.8979 17.0856 19.0625 17.5 19.0625H24.375C24.7894 19.0625 25.1868 18.8979 25.4799 18.6049C25.7729 18.3118 25.9375 17.9144 25.9375 17.5C25.9375 17.0856 25.7729 16.6882 25.4799 16.3951C25.1868 16.1021 24.7894 15.9375 24.375 15.9375Z" fill="#0A84FF"/>
</svg>
