<svg width="33" height="35" viewBox="0 0 33 35" fill="none" xmlns="http://www.w3.org/2000/svg">
<path d="M7.1102 5.92926C9.52574 3.51423 12.8016 2.15752 16.2173 2.15752C19.6331 2.15752 22.9089 3.51423 25.3245 5.92926C25.5299 6.11561 25.799 6.21584 26.0763 6.2092C26.3535 6.20257 26.6176 6.08957 26.8138 5.89361C27.01 5.69765 27.1234 5.43374 27.1304 5.15651C27.1374 4.87928 27.0376 4.60997 26.8515 4.40434C25.4552 3.008 23.7976 1.90036 21.9733 1.14466C20.149 0.388955 18.1937 0 16.219 0C14.2444 0 12.289 0.388955 10.4647 1.14466C8.64038 1.90036 6.98277 3.008 5.58653 4.40434C5.47643 4.50214 5.38749 4.62141 5.32516 4.75483C5.26284 4.88825 5.22845 5.033 5.2241 5.1802C5.21976 5.32739 5.24556 5.47392 5.29991 5.61078C5.35426 5.74764 5.43601 5.87195 5.54016 5.97606C5.6443 6.08018 5.76863 6.1619 5.9055 6.21622C6.04238 6.27053 6.18892 6.29629 6.33611 6.2919C6.48331 6.28752 6.62805 6.25309 6.76145 6.19073C6.89486 6.12837 7.0141 6.03939 7.11187 5.92926H7.1102Z" fill="#0A84FF"/>
<path d="M9.49276 8.31077C9.38227 8.40844 9.29295 8.52769 9.23029 8.66118C9.16764 8.79467 9.13298 8.93958 9.12844 9.08697C9.12391 9.23437 9.14959 9.38113 9.20392 9.51822C9.25825 9.65531 9.34008 9.77983 9.44435 9.8841C9.54862 9.98837 9.67314 10.0702 9.81023 10.1245C9.94732 10.1789 10.0941 10.2045 10.2415 10.2C10.3889 10.1955 10.5338 10.1608 10.6673 10.0982C10.8008 10.0355 10.92 9.94618 11.0177 9.83569C13.8847 6.96867 18.5509 6.96867 21.4187 9.83569C21.6248 10.0178 21.8925 10.1145 22.1674 10.1061C22.4423 10.0976 22.7037 9.98464 22.8981 9.79017C23.0926 9.5957 23.2056 9.33438 23.214 9.05949C23.2225 8.7846 23.1258 8.51683 22.9436 8.31077C19.2352 4.60193 13.2012 4.60235 9.49276 8.31077Z" fill="#0A84FF"/>
<path d="M32.2087 14.0984C31.9606 13.8502 31.6242 13.7108 31.2733 13.7107H18.5255L18.3128 13.5761L16.6478 10.0899C16.6164 10.0239 16.5668 9.96804 16.5049 9.92896C16.443 9.88988 16.3714 9.86914 16.2982 9.86914C16.225 9.86914 16.1533 9.88988 16.0914 9.92896C16.0295 9.96804 15.98 10.0239 15.9485 10.0899L14.2832 13.5761L14.0708 13.7107H1.32299C0.972109 13.7107 0.635603 13.8501 0.387495 14.0982C0.139388 14.3463 2.3581e-06 14.6828 2.3581e-06 15.0337V33.6768C-0.000326138 33.8506 0.0336695 34.0228 0.100039 34.1834C0.166409 34.3441 0.263847 34.4901 0.386762 34.613C0.509678 34.7359 0.655653 34.8333 0.816313 34.8997C0.976973 34.9661 1.14916 35.0001 1.32299 34.9997H31.2733C31.4471 35 31.6193 34.966 31.7799 34.8996C31.9405 34.8332 32.0864 34.7357 32.2093 34.6128C32.3322 34.4899 32.4296 34.344 32.4959 34.1833C32.5623 34.0227 32.5962 33.8506 32.5959 33.6768V15.0337C32.596 14.86 32.5618 14.688 32.4953 14.5275C32.4289 14.367 32.3315 14.2212 32.2087 14.0984ZM29.9458 32.1315L29.7094 32.3675H2.88406L2.64805 32.1315V16.5831H2.64555L2.88198 16.3467H29.7094L29.9458 16.5831V32.1315Z" fill="#0A84FF"/>
<path d="M20.3963 21.1727C20.2839 21.1727 20.1726 21.1949 20.0688 21.2379C19.9649 21.281 19.8706 21.3441 19.7912 21.4236C19.7118 21.5031 19.6488 21.5976 19.6059 21.7014C19.563 21.8053 19.541 21.9167 19.5412 22.0291V26.6828C19.5412 26.9096 19.6313 27.1271 19.7916 27.2874C19.952 27.4478 20.1695 27.5379 20.3963 27.5379C20.6231 27.5379 20.8406 27.4478 21.0009 27.2874C21.1613 27.1271 21.2514 26.9096 21.2514 26.6828V22.0291C21.2515 21.9167 21.2295 21.8054 21.1866 21.7015C21.1436 21.5976 21.0807 21.5033 21.0013 21.4237C20.9219 21.3442 20.8275 21.2811 20.7237 21.238C20.6199 21.195 20.5087 21.1728 20.3963 21.1727ZM24.765 21.1727C24.5379 21.1729 24.3202 21.2632 24.1597 21.4238C23.9991 21.5843 23.9088 21.802 23.9086 22.0291V26.6828C23.9086 26.9096 23.9987 27.1271 24.159 27.2874C24.3194 27.4478 24.5369 27.5379 24.7637 27.5379C24.9905 27.5379 25.208 27.4478 25.3684 27.2874C25.5287 27.1271 25.6188 26.9096 25.6188 26.6828V22.0291C25.619 21.9167 25.5971 21.8054 25.5543 21.7015C25.5115 21.5977 25.4487 21.5032 25.3694 21.4236C25.2901 21.344 25.1959 21.2808 25.0922 21.2376C24.9885 21.1944 24.8773 21.1721 24.765 21.1719V21.1727ZM7.83168 21.1727C7.71927 21.1727 7.60794 21.1948 7.50409 21.2378C7.40024 21.2808 7.30589 21.3439 7.22646 21.4235C7.14703 21.503 7.08407 21.5975 7.04119 21.7014C6.9983 21.8053 6.97635 21.9167 6.97656 22.0291V26.6828C6.97656 26.9096 7.06666 27.1271 7.22702 27.2874C7.38739 27.4478 7.60489 27.5379 7.83168 27.5379C8.05847 27.5379 8.27598 27.4478 8.43634 27.2874C8.59671 27.1271 8.6868 26.9096 8.6868 26.6828V22.0291C8.68691 21.9167 8.66488 21.8054 8.62196 21.7015C8.57904 21.5976 8.51607 21.5033 8.43666 21.4237C8.35725 21.3442 8.26295 21.2811 8.15915 21.238C8.05534 21.195 7.94407 21.1728 7.83168 21.1727ZM12.2004 21.1727C11.9733 21.1729 11.7556 21.2632 11.5951 21.4238C11.4345 21.5843 11.3442 21.802 11.344 22.0291V26.6828C11.344 26.9096 11.4341 27.1271 11.5944 27.2874C11.7548 27.4478 11.9723 27.5379 12.1991 27.5379C12.4259 27.5379 12.6434 27.4478 12.8038 27.2874C12.9641 27.1271 13.0542 26.9096 13.0542 26.6828V22.0291C13.0544 21.9167 13.0325 21.8054 12.9897 21.7015C12.9469 21.5977 12.8841 21.5032 12.8048 21.4236C12.7255 21.344 12.6313 21.2808 12.5276 21.2376C12.4239 21.1944 12.3127 21.1721 12.2004 21.1719V21.1727Z" fill="#0A84FF"/>
</svg>
