<svg width="35" height="35" viewBox="0 0 35 35" fill="none" xmlns="http://www.w3.org/2000/svg">
<path d="M19.4444 0H15.5556V19.4444H19.4444V0ZM28.8458 4.20971L26.0944 6.96109C29.1472 9.4597 31.1111 13.2416 31.1111 17.5C31.1111 25.0152 25.0153 31.1111 17.5 31.1111C9.9847 31.1111 3.88889 25.0153 3.88889 17.5C3.88889 13.2417 5.85278 9.45974 8.90557 6.96113L6.1542 4.20976C2.40137 7.41805 0 12.1722 0 17.5C0 27.1639 7.83613 35 17.5 35C27.1639 35 35 27.1639 35 17.5C35 12.1722 32.5986 7.41805 28.8458 4.20971Z" fill="#0A84FF"/>
</svg>
