<svg width="80" height="100" viewBox="0 0 80 100" fill="none" xmlns="http://www.w3.org/2000/svg">
<rect x="25.9248" y="76.2539" width="4.01648" height="9.04943" rx="1.75" fill="white" stroke="#0A84FF" stroke-width="1.5"/>
<rect x="47.5664" y="76.2539" width="5.52636" height="9.04943" rx="1.75" fill="white" stroke="#0A84FF" stroke-width="1.5"/>
<rect x="18.6284" y="27.6875" width="42.2636" height="52.3295" rx="4" fill="white" stroke="#0A84FF" stroke-width="2"/>
<path d="M47.4118 51.8418H45.9963C45.7187 51.8422 45.4526 51.9528 45.2565 52.1492C45.0604 52.3457 44.9502 52.6119 44.9502 52.8895V54.8141C44.9502 54.9515 44.9773 55.0875 45.0298 55.2144C45.0824 55.3413 45.1594 55.4567 45.2566 55.5538C45.3537 55.6509 45.469 55.728 45.5959 55.7806C45.7229 55.8331 45.8589 55.8602 45.9963 55.8602H47.4118C47.6894 55.8602 47.9556 55.75 48.1521 55.5539C48.3485 55.3578 48.4591 55.0917 48.4595 54.8141V52.8895C48.4595 52.6116 48.3491 52.3451 48.1526 52.1487C47.9562 51.9522 47.6897 51.8418 47.4118 51.8418ZM47.7074 54.7205C47.7076 54.7715 47.6977 54.822 47.6783 54.8691C47.6589 54.9162 47.6304 54.959 47.5944 54.995C47.5583 55.0311 47.5155 55.0596 47.4684 55.079C47.4213 55.0984 47.3708 55.1083 47.3198 55.1081H46.0882C46.0373 55.1083 45.9868 55.0984 45.9397 55.079C45.8925 55.0596 45.8497 55.0311 45.8137 54.995C45.7777 54.959 45.7491 54.9162 45.7297 54.8691C45.7103 54.822 45.7004 54.7715 45.7007 54.7205V52.9864C45.7007 52.8836 45.7415 52.785 45.8142 52.7123C45.8869 52.6397 45.9854 52.5988 46.0882 52.5988H47.3198C47.4226 52.5988 47.5212 52.6397 47.5939 52.7123C47.6666 52.785 47.7074 52.8836 47.7074 52.9864V54.7205Z" fill="#0A84FF"/>
<path d="M43.2195 51.8477H40.9697C40.9411 51.8477 40.9128 51.8533 40.8864 51.8643C40.86 51.8753 40.836 51.8914 40.8158 51.9117C40.7957 51.932 40.7798 51.9561 40.769 51.9826C40.7582 52.0091 40.7527 52.0375 40.7529 52.0661V55.6443C40.7529 55.7018 40.7758 55.757 40.8164 55.7976C40.8571 55.8383 40.9122 55.8611 40.9697 55.8611H43.1998C43.3404 55.8611 43.4796 55.8334 43.6095 55.7796C43.7394 55.7258 43.8574 55.6469 43.9569 55.5475C44.0563 55.4481 44.1352 55.3301 44.189 55.2002C44.2428 55.0702 44.2705 54.931 44.2705 54.7904V52.8986C44.2705 52.6199 44.1597 52.3526 43.9626 52.1555C43.7655 51.9584 43.4982 51.8477 43.2195 51.8477ZM43.52 54.7198C43.52 54.7709 43.5099 54.8215 43.4904 54.8687C43.4708 54.916 43.4421 54.9589 43.406 54.995C43.3699 55.0311 43.327 55.0598 43.2797 55.0794C43.2325 55.0989 43.1819 55.109 43.1308 55.109H41.6167C41.588 55.109 41.5604 55.0976 41.5401 55.0773C41.5198 55.0569 41.5083 55.0294 41.5083 55.0006V52.7082C41.5083 52.6785 41.5201 52.6501 41.541 52.6292C41.562 52.6082 41.5904 52.5965 41.62 52.5965H43.1407C43.1904 52.5954 43.2398 52.6043 43.286 52.6226C43.3322 52.641 43.3742 52.6685 43.4096 52.7034C43.445 52.7383 43.473 52.78 43.4919 52.8259C43.5109 52.8719 43.5204 52.9212 43.52 52.9709V54.7198Z" fill="#0A84FF"/>
<path d="M37.28 52.5988H39.7613C39.8111 52.5984 39.8588 52.5783 39.8938 52.5429C39.9289 52.5076 39.9485 52.4598 39.9485 52.41V52.0306C39.9488 52.0059 39.9441 51.9814 39.9348 51.9585C39.9255 51.9356 39.9117 51.9148 39.8943 51.8972C39.8769 51.8796 39.8562 51.8657 39.8334 51.8562C39.8105 51.8467 39.7861 51.8418 39.7613 51.8418H37.2012C37.1019 51.8418 37.0035 51.8614 36.9117 51.8995C36.82 51.9375 36.7366 51.9933 36.6665 52.0636C36.5963 52.1339 36.5407 52.2174 36.5028 52.3093C36.465 52.4011 36.4456 52.4995 36.4458 52.5988V55.1393C36.4534 55.3344 36.5364 55.5191 36.6772 55.6544C36.8181 55.7897 37.0059 55.8653 37.2012 55.8651H39.7613C39.7859 55.8651 39.8103 55.8603 39.833 55.8509C39.8557 55.8414 39.8763 55.8277 39.8937 55.8103C39.9111 55.7929 39.9249 55.7723 39.9343 55.7495C39.9437 55.7268 39.9485 55.7025 39.9485 55.6779V55.2936C39.9485 55.2438 39.9289 55.196 39.8938 55.1607C39.8588 55.1253 39.8111 55.1052 39.7613 55.1048H37.28C37.2574 55.1048 37.2357 55.0958 37.2196 55.0798C37.2036 55.0638 37.1946 55.042 37.1946 55.0194V54.3149C37.1946 54.2923 37.2036 54.2705 37.2196 54.2545C37.2357 54.2385 37.2574 54.2295 37.28 54.2295H39.7597C39.7846 54.2295 39.8093 54.2246 39.8323 54.215C39.8554 54.2054 39.8763 54.1913 39.8938 54.1736C39.9114 54.1559 39.9253 54.1349 39.9346 54.1118C39.944 54.0887 39.9488 54.064 39.9485 54.039V53.663C39.9488 53.6381 39.944 53.6134 39.9346 53.5904C39.9252 53.5674 39.9113 53.5465 39.8937 53.5289C39.8761 53.5114 39.8552 53.4975 39.8322 53.488C39.8092 53.4786 39.7846 53.4739 39.7597 53.4741H37.28C37.2574 53.4741 37.2357 53.4651 37.2196 53.4491C37.2036 53.4331 37.1946 53.4114 37.1946 53.3887V52.6826C37.1946 52.6714 37.1968 52.6604 37.2012 52.6502C37.2055 52.6399 37.2118 52.6306 37.2197 52.6228C37.2277 52.615 37.2371 52.6088 37.2475 52.6047C37.2578 52.6006 37.2689 52.5986 37.28 52.5988Z" fill="#0A84FF"/>
<path d="M35.7168 52.6067C35.7179 52.4267 35.655 52.2521 35.5394 52.1141C35.4691 52.0283 35.3807 51.9592 35.2804 51.9118C35.1802 51.8643 35.0707 51.8398 34.9597 51.8398H31.9529C31.8543 51.8398 31.7567 51.8593 31.6656 51.8972C31.5745 51.935 31.4918 51.9904 31.4223 52.0603C31.3527 52.1302 31.2976 52.2132 31.2602 52.3044C31.2227 52.3956 31.2037 52.4933 31.2041 52.592V55.6644C31.2041 55.7176 31.2252 55.7685 31.2628 55.8061C31.3004 55.8437 31.3513 55.8648 31.4045 55.8648H31.7526C31.8057 55.8648 31.8567 55.8437 31.8943 55.8061C31.9318 55.7685 31.9529 55.7176 31.9529 55.6644V52.6741C31.9533 52.6547 31.9609 52.6362 31.9743 52.6222C31.9877 52.6082 32.0059 52.5998 32.0252 52.5985H33.0105C33.0307 52.5985 33.0501 52.6064 33.0645 52.6205C33.0789 52.6347 33.0872 52.6539 33.0877 52.6741V55.6727C33.0877 55.724 33.1081 55.7733 33.1444 55.8097C33.1808 55.846 33.2301 55.8664 33.2815 55.8664H33.6411C33.6918 55.8652 33.74 55.8442 33.7755 55.8081C33.8111 55.7719 33.8312 55.7234 33.8316 55.6727V52.6741C33.8316 52.654 33.8395 52.6348 33.8537 52.6206C33.8679 52.6065 33.8871 52.5985 33.9071 52.5985H34.8924C34.9236 52.5985 34.9614 52.6149 34.9614 52.6445V55.6644C34.9614 55.7176 34.9825 55.7685 35.0201 55.8061C35.0576 55.8437 35.1086 55.8648 35.1617 55.8648H35.5099C35.5636 55.8648 35.6153 55.8439 35.6539 55.8065C35.6925 55.7691 35.7151 55.7182 35.7168 55.6644V52.7085V52.6067Z" fill="#0A84FF"/>
<path d="M39.9676 17.7634C17.488 17.7634 0 14.4002 0 8.88168C0 3.3632 17.488 0 39.9676 0C62.4471 0 79.9351 3.3632 79.9351 8.88168C79.9351 14.4002 62.4471 17.7634 39.9676 17.7634ZM39.9676 14.8028C59.9987 14.8028 76.9746 11.5373 76.9746 8.88168C76.9746 6.22606 59.9987 2.96056 39.9676 2.96056C19.9364 2.96056 2.96056 6.22606 2.96056 8.88168C2.96056 11.5373 19.9364 14.8028 39.9676 14.8028Z" fill="#0A84FF"/>
<path d="M76.791 7.40039H79.7516V89.4138L79.0114 89.8402C66.7843 96.8774 53.7223 100.261 39.8462 99.983C26.0204 99.7018 12.9998 96.46 0.808233 90.2546L0 89.8431V7.40039H2.96056V88.0224C14.5186 93.7599 26.8286 96.756 39.9084 97.0225C52.9615 97.286 65.2478 94.1803 76.791 87.6967V7.40039Z" fill="#0A84FF"/>
</svg>
