<svg width="51" height="35" viewBox="0 0 51 35" fill="none" xmlns="http://www.w3.org/2000/svg">
<path d="M17.3599 23.7875C13.9427 23.7875 11.1554 20.8952 11.1554 17.3921C11.1554 13.8857 13.9427 10.9966 17.3599 10.9966C20.7772 10.9966 23.5645 13.8857 23.5645 17.3921C23.5645 20.8952 20.7772 23.7875 17.3599 23.7875ZM17.3599 14.2803C15.8327 14.2803 14.5695 15.6803 14.5695 17.3921C14.5695 19.1007 15.8295 20.5007 17.3599 20.5007C18.8872 20.5007 20.1918 19.1007 20.1918 17.3921C20.1918 15.6834 18.9318 14.2803 17.3599 14.2803ZM4.58817 19.8452V7.18164H0V23.743H10.5222V19.8452H4.58817ZM17.1818 34.9557C13.5662 34.9764 10.0834 33.5953 7.46452 31.1025L9.03952 29.5243C10.1508 30.5901 11.4621 31.4253 12.8978 31.9818C14.3335 32.5383 15.8652 32.805 17.4045 32.7666C20.5545 32.722 23.4754 31.4938 25.6327 29.3048L27.2554 30.8384C24.6539 33.4526 21.1335 34.9462 17.4459 35.0002H17.2231L17.1754 34.9557H17.1818Z" fill="#0A84FF"/>
<path d="M17.2237 30.8814C14.5256 30.8814 12.0056 29.8727 10.0742 28.0782L11.4679 26.6782C14.7515 29.7423 19.9696 29.7009 23.1133 26.5L24.5546 27.8586C22.6678 29.7868 20.1033 30.8814 17.3606 30.9259H17.1792L17.2237 30.8814Z" fill="#0A84FF"/>
<path d="M17.2706 27.2906C15.336 27.2906 13.4906 26.5906 12.097 25.2765L13.357 24.0038C14.391 25.0124 15.7847 25.5374 17.2706 25.5374H17.3597C18.8424 25.5374 20.236 24.9265 21.3178 23.8733L22.6224 25.1015C21.9417 25.7948 21.1296 26.3454 20.2337 26.7213C19.3377 27.0972 18.3758 27.2907 17.4042 27.2906H17.2706ZM25.6324 5.65109C23.4505 3.46173 20.495 2.21831 17.4042 2.18928H17.2229C14.1683 2.18928 11.2888 3.32837 9.08378 5.43472L7.50879 3.85655C10.1263 1.36333 13.608 -0.0188441 17.2229 0.000194094H17.4488C19.2765 0.0134141 21.0835 0.387923 22.7659 1.10217C24.4483 1.81642 25.9729 2.85631 27.2519 4.162L25.6324 5.69563V5.65109Z" fill="#0A84FF"/>
<path d="M23.1636 8.45407C20.0136 5.25636 14.7509 5.17045 11.5118 8.27907L10.1182 6.87908C14.1654 3.02273 20.6881 3.15636 24.6431 7.09544L23.2049 8.45407H23.1636Z" fill="#0A84FF"/>
<path d="M21.3185 11.0816C20.2668 10.0317 18.8463 9.43455 17.3604 9.41748H17.2713C15.7854 9.41748 14.4395 9.94248 13.3577 10.9511L12.0977 9.67839C13.5009 8.36963 15.3525 7.64878 17.2713 7.6643H17.4049C19.384 7.6643 21.2263 8.49794 22.6231 9.85657L21.3185 11.0816ZM39.1271 12.5261C39.1271 10.4261 37.6412 8.62839 35.5285 7.75339C35.2485 7.58158 34.7108 7.43839 33.9121 7.33021C33.2414 7.22854 32.5637 7.1796 31.8853 7.18385H25.4994V23.742H30.0876V10.9957H33.5049C33.5049 10.9957 33.8644 11.1229 34.0458 11.1707C34.5453 11.4888 34.8476 12.0297 34.854 12.6152C34.8481 13.0236 34.6878 13.4147 34.4053 13.7097C33.9535 13.9738 33.3235 14.1934 32.6044 14.1934H30.1322V18.0911H31.6594L34.9876 23.6974H39.2608V22.5138C38.6308 21.5084 37.9117 20.2356 37.6858 19.8856C37.5967 19.7106 36.6071 18.0911 36.0217 17.0856C37.8671 16.1184 39.1271 14.4543 39.1271 12.5261ZM47.5366 23.742V22.4279H47.4921C47.1138 22.8552 46.6741 23.2241 46.1876 23.5224C45.7357 23.7865 45.1057 23.917 44.3421 23.917C43.938 23.917 43.5785 23.8724 43.1744 23.7865C42.7545 23.6853 42.3573 23.5061 42.0035 23.2583C41.6182 23.0114 41.3079 22.6637 41.1062 22.2529C40.8487 21.7065 40.7255 21.1065 40.7467 20.5029C40.7467 19.7552 40.8358 19.1411 40.9694 18.5715C41.122 18.0357 41.4179 17.5516 41.8253 17.1715C42.2794 16.7878 42.8181 16.5173 43.3971 16.3825C44.0717 16.2075 44.9276 16.1184 45.9617 16.1184H47.5812V14.7629C47.5863 14.3673 47.4599 13.9811 47.2217 13.6652C46.9989 13.3597 46.5471 13.2293 45.9171 13.2293C45.4984 13.2093 45.0853 13.3328 44.7462 13.5793C44.5704 13.6812 44.419 13.8203 44.3025 13.9868C44.186 14.1534 44.1072 14.3433 44.0717 14.5434H40.8803C40.9694 13.4043 41.4658 12.4847 42.363 11.7402C42.8148 11.3902 43.308 11.1261 43.938 10.9511C44.5235 10.7761 45.2426 10.6425 45.9617 10.6425C46.6362 10.6425 47.3107 10.7316 47.8962 10.9066C48.4816 11.0816 49.0194 11.3457 49.4712 11.6511C50.4003 12.3925 50.9285 13.5061 50.9094 14.6738V23.6115H47.6257L47.5366 23.7388V23.742ZM47.5366 18.2215C47.1771 18.177 46.8621 18.1356 46.6362 18.1356C45.9171 18.1356 45.3317 18.2629 44.7907 18.5302C44.2976 18.7911 44.0271 19.2747 44.0271 19.9747C44.0271 20.4552 44.1639 20.8497 44.4789 21.1584C44.7939 21.4638 45.198 21.5943 45.7357 21.5943C46.2767 21.5943 46.7253 21.4638 47.0403 21.1584C47.3585 20.8497 47.4921 20.4584 47.4921 19.9302V18.1802L47.5366 18.2215Z" fill="#0A84FF"/>
</svg>
