<svg width="160" height="174" viewBox="0 0 160 174" fill="none" xmlns="http://www.w3.org/2000/svg">
<rect x="11" y="89" width="139" height="45" rx="3" fill="white" stroke="#0A84FF" stroke-width="2"/>
<mask id="path-2-outside-1_38_902" maskUnits="userSpaceOnUse" x="23" y="0" width="114" height="90" fill="black">
<rect fill="white" x="23" width="114" height="90"/>
<path d="M129 88C132.314 88 135.014 85.3119 134.866 82.0015C133.945 61.3847 128.297 41.8972 118.891 27.1888C108.576 11.0607 94.5869 2 80 2C65.4131 2 51.4236 11.0607 41.1091 27.1888C31.7026 41.8972 26.0552 61.3847 25.1338 82.0014C24.9859 85.3118 27.6863 88 31 88L80 88H129Z"/>
</mask>
<path d="M129 88C132.314 88 135.014 85.3119 134.866 82.0015C133.945 61.3847 128.297 41.8972 118.891 27.1888C108.576 11.0607 94.5869 2 80 2C65.4131 2 51.4236 11.0607 41.1091 27.1888C31.7026 41.8972 26.0552 61.3847 25.1338 82.0014C24.9859 85.3118 27.6863 88 31 88L80 88H129Z" fill="white"/>
<path d="M129 88C132.314 88 135.014 85.3119 134.866 82.0015C133.945 61.3847 128.297 41.8972 118.891 27.1888C108.576 11.0607 94.5869 2 80 2C65.4131 2 51.4236 11.0607 41.1091 27.1888C31.7026 41.8972 26.0552 61.3847 25.1338 82.0014C24.9859 85.3118 27.6863 88 31 88L80 88H129Z" stroke="#0A84FF" stroke-width="3" mask="url(#path-2-outside-1_38_902)"/>
<path d="M25 82H135" stroke="#0A84FF" stroke-width="1.5" stroke-linecap="round"/>
<path d="M107 71.7866H105.553V69.4894H106.865V68.9805H103.118V69.4894H104.428V71.7866H102.982V72.2699H107V71.7866Z" fill="#0A84FF"/>
<path d="M102.447 69.9126L102.82 69.8029V69.2122L102.447 69.3219V67.4193H102.82V66.9664H102.447V66.1562L101.322 66.1633V66.9664H100.764V67.4193H101.322V69.6161L100.764 69.7515V70.3398L101.322 70.1787V70.4542V71.6005V72.2705H102.447V69.9126Z" fill="#0A84FF"/>
<path d="M107 66.2171H105.508C105.466 66.1027 105.431 66 105.431 66H104.36L104.439 66.2171H102.982V67.3681H103.734L103.083 68.7338H104.098L104.939 66.9338H103.921L103.788 67.256V66.6467H106.162V67.2327L106.064 66.9338H105.044L105.854 68.7268H106.862L106.251 67.4007H107V66.2171Z" fill="#0A84FF"/>
<path d="M95.7031 72.268H96.6369L96.9287 70.3653L97.2252 72.268H98.0283L97.7575 70.2836H96.9568L97.3303 67.6876V70.1249H98.0003V66.2168H95.542V70.1249H96.0789L95.7031 72.268ZM96.2657 66.6207H97.335V67.153H96.5295L96.2657 68.8409V66.6207Z" fill="#0A84FF"/>
<path d="M95.4603 69.6152H94.4144L93.9102 72.2697H94.9864L95.4603 69.6152Z" fill="#0A84FF"/>
<path d="M98.9928 66.2168L98.1641 66.2191V71.3552H98.9928V66.2168Z" fill="#0A84FF"/>
<path d="M100.066 66.2168H99.207V71.5933V71.6237V72.2704H100.066V66.2168Z" fill="#0A84FF"/>
<path d="M95.4601 67.4751L94.9349 66.002H93.8633L94.4142 67.4751H95.4601Z" fill="#0A84FF"/>
<path d="M94.4138 69.1346H95.4597L94.9788 67.7969H93.9072L94.4138 69.1346Z" fill="#0A84FF"/>
<path d="M91.7938 72.2687H93.2389L91.8755 70.5831L93.0428 68.9746H88.6865L89.8911 70.5831L88.5254 72.2687H89.9728L90.881 71.1715L91.7938 72.2687ZM91.4179 69.4322L90.881 70.1536L90.3487 69.4322H91.4179Z" fill="#0A84FF"/>
<path d="M92.729 66.8867H91.6318V67.2626H90.0793V66.8867H88.9797V67.2603H88.5781V67.7132H88.9797V68.7334H92.729V67.7132H93.2636V67.2626H92.729V66.8867ZM91.6318 68.2875H90.0793V67.7132H91.6318V68.2875Z" fill="#0A84FF"/>
<path d="M91.3127 66.2171H91.2006C91.1586 66.1027 91.1236 66 91.1236 66H90.0543L90.1361 66.2171H87.4279L87.0801 72.2684H88.1867L88.5345 66.6654H93.2737V66.2171H91.3127Z" fill="#0A84FF"/>
<path d="M84.4551 69.1094L85.2068 72.2681H86.3601L85.5803 69.1094H84.4551Z" fill="#0A84FF"/>
<path d="M80.332 72.2681H81.4853L82.2604 69.1094H81.1118L80.332 72.2681Z" fill="#0A84FF"/>
<path d="M82.2607 68.0345L81.6164 66.2695H80.4678L81.1121 68.0345H82.2607Z" fill="#0A84FF"/>
<path d="M83.9489 66.0059H82.7699V68.3311H80.2275V68.8097H82.7699V72.2672H83.9489V68.8097H86.4632V68.3311H83.9489V66.0059Z" fill="#0A84FF"/>
<path d="M86.2247 66.2695H85.0994L84.4551 68.0345H85.5803L86.2247 66.2695Z" fill="#0A84FF"/>
<path d="M78.4794 66.1055H78.1922C78.1136 66.1055 78.0498 66.1692 78.0498 66.2479V72.2384C78.0498 72.3171 78.1136 72.3808 78.1922 72.3808H78.4794C78.558 72.3808 78.6218 72.3171 78.6218 72.2384V66.2479C78.6218 66.1692 78.558 66.1055 78.4794 66.1055Z" fill="#0A84FF"/>
<path d="M75.0425 66.4043H73.0301C72.6355 66.4049 72.2572 66.5621 71.9784 66.8414C71.6996 67.1206 71.543 67.4991 71.543 67.8938V70.6299C71.543 70.8252 71.5814 71.0186 71.6562 71.199C71.7309 71.3794 71.8404 71.5434 71.9785 71.6814C72.1166 71.8195 72.2806 71.9291 72.461 72.0038C72.6414 72.0786 72.8348 72.117 73.0301 72.117H75.0425C75.4371 72.117 75.8156 71.9604 76.0949 71.6816C76.3741 71.4028 76.5313 71.0245 76.532 70.6299V67.8938C76.532 67.4987 76.375 67.1199 76.0957 66.8406C75.8164 66.5612 75.4375 66.4043 75.0425 66.4043ZM75.4627 70.4968C75.463 70.5693 75.449 70.641 75.4214 70.708C75.3938 70.775 75.3533 70.8359 75.302 70.8871C75.2508 70.9383 75.19 70.9789 75.123 71.0065C75.056 71.034 74.9842 71.0481 74.9118 71.0478H73.1608C73.0884 71.0481 73.0166 71.034 72.9496 71.0065C72.8826 70.9789 72.8218 70.9383 72.7706 70.8871C72.7193 70.8359 72.6788 70.775 72.6512 70.708C72.6236 70.641 72.6096 70.5693 72.6099 70.4968V68.0315C72.6099 67.8854 72.6679 67.7452 72.7712 67.6419C72.8746 67.5386 73.0147 67.4805 73.1608 67.4805H74.9118C75.0579 67.4805 75.198 67.5386 75.3013 67.6419C75.4047 67.7452 75.4627 67.8854 75.4627 68.0315V70.4968Z" fill="#0A84FF"/>
<path d="M69.0818 66.4102H65.8834C65.8427 66.4102 65.8024 66.4182 65.7649 66.4338C65.7274 66.4495 65.6933 66.4724 65.6646 66.5012C65.636 66.5301 65.6133 66.5644 65.598 66.602C65.5826 66.6397 65.5749 66.68 65.5752 66.7207V71.8077C65.5752 71.8894 65.6077 71.9678 65.6655 72.0256C65.7233 72.0834 65.8016 72.1159 65.8834 72.1159H69.0537C69.2536 72.1159 69.4516 72.0765 69.6362 72C69.8209 71.9235 69.9887 71.8114 70.1301 71.67C70.2714 71.5287 70.3835 71.3609 70.46 71.1762C70.5365 70.9915 70.5759 70.7936 70.5759 70.5937V67.9043C70.5759 67.508 70.4185 67.128 70.1383 66.8478C69.8581 66.5676 69.478 66.4102 69.0818 66.4102ZM69.509 70.4933C69.509 70.566 69.4947 70.6379 69.4669 70.7051C69.4391 70.7722 69.3983 70.8332 69.3469 70.8846C69.2955 70.9359 69.2346 70.9767 69.1674 71.0045C69.1003 71.0323 69.0283 71.0466 68.9557 71.0466H66.8032C66.7623 71.0466 66.7231 71.0304 66.6942 71.0015C66.6653 70.9726 66.6491 70.9334 66.6491 70.8925V67.6335C66.6491 67.5914 66.6658 67.551 66.6956 67.5212C66.7254 67.4914 66.7658 67.4747 66.8079 67.4747H68.9697C69.0404 67.4732 69.1106 67.4858 69.1763 67.5119C69.242 67.538 69.3017 67.5771 69.352 67.6267C69.4023 67.6763 69.4421 67.7356 69.4691 67.8009C69.4961 67.8663 69.5096 67.9363 69.509 68.007V70.4933Z" fill="#0A84FF"/>
<path d="M60.6381 67.4805H64.1657C64.2365 67.4799 64.3042 67.4514 64.354 67.4011C64.4038 67.3508 64.4318 67.2829 64.4318 67.2121V66.6728C64.4321 66.6376 64.4255 66.6028 64.4122 66.5702C64.399 66.5376 64.3794 66.508 64.3547 66.4831C64.3299 66.4581 64.3005 66.4383 64.2681 66.4248C64.2356 66.4113 64.2008 66.4043 64.1657 66.4043H60.5261C60.3848 66.4043 60.245 66.4322 60.1146 66.4863C59.9841 66.5404 59.8656 66.6197 59.7659 66.7197C59.6661 66.8196 59.5871 66.9383 59.5332 67.0689C59.4794 67.1994 59.4518 67.3393 59.4522 67.4805V71.0921C59.463 71.3696 59.5809 71.6321 59.7812 71.8245C59.9814 72.0169 60.2484 72.1242 60.5261 72.124H64.1657C64.2006 72.124 64.2352 72.1171 64.2675 72.1038C64.2998 72.0904 64.3291 72.0708 64.3539 72.0461C64.3786 72.0214 64.3982 71.992 64.4116 71.9597C64.4249 71.9274 64.4318 71.8928 64.4318 71.8579V71.3116C64.4318 71.2408 64.4038 71.1728 64.354 71.1226C64.3042 71.0723 64.2365 71.0437 64.1657 71.0431H60.6381C60.6059 71.0431 60.575 71.0303 60.5523 71.0075C60.5295 70.9848 60.5167 70.9539 60.5167 70.9217V69.9202C60.5167 69.888 60.5295 69.8571 60.5523 69.8343C60.575 69.8116 60.6059 69.7988 60.6381 69.7988H64.1633C64.1988 69.7988 64.2339 69.7918 64.2666 69.7781C64.2993 69.7645 64.329 69.7445 64.354 69.7193C64.379 69.6941 64.3987 69.6643 64.412 69.6314C64.4254 69.5986 64.4321 69.5634 64.4318 69.528V68.9933C64.4321 68.958 64.4254 68.9229 64.412 68.8902C64.3986 68.8575 64.3789 68.8278 64.3539 68.8028C64.3289 68.7778 64.2992 68.7581 64.2664 68.7447C64.2337 68.7313 64.1987 68.7246 64.1633 68.7249H60.6381C60.6059 68.7249 60.575 68.7121 60.5523 68.6893C60.5295 68.6665 60.5167 68.6357 60.5167 68.6035V67.5996C60.5167 67.5838 60.5199 67.5681 60.526 67.5535C60.5321 67.5389 60.5411 67.5257 60.5524 67.5146C60.5637 67.5035 60.5771 67.4948 60.5918 67.4889C60.6066 67.4831 60.6223 67.4802 60.6381 67.4805Z" fill="#0A84FF"/>
<path d="M58.4154 67.4887C58.417 67.2327 58.3276 66.9846 58.1633 66.7883C58.0634 66.6664 57.9376 66.5681 57.7951 66.5007C57.6526 66.4333 57.4969 66.3983 57.3392 66.3984H53.0646C52.9244 66.3984 52.7856 66.4261 52.6561 66.4799C52.5266 66.5337 52.4091 66.6125 52.3102 66.7119C52.2112 66.8112 52.1329 66.9291 52.0797 67.0588C52.0265 67.1885 51.9994 67.3275 52 67.4677V71.8357C52 71.9112 52.03 71.9836 52.0834 72.0371C52.1368 72.0905 52.2093 72.1205 52.2848 72.1205H52.7798C52.8553 72.1205 52.9277 72.0905 52.9812 72.0371C53.0346 71.9836 53.0646 71.9112 53.0646 71.8357V67.5844C53.0651 67.5569 53.076 67.5306 53.095 67.5107C53.114 67.4908 53.1398 67.4788 53.1673 67.477H54.5681C54.5968 67.477 54.6243 67.4882 54.6448 67.5083C54.6653 67.5284 54.6772 67.5557 54.6778 67.5844V71.8473C54.6778 71.9204 54.7068 71.9905 54.7585 72.0421C54.8101 72.0938 54.8802 72.1228 54.9533 72.1228H55.4645C55.5366 72.121 55.6051 72.0913 55.6557 72.0399C55.7062 71.9884 55.7348 71.9194 55.7353 71.8473V67.5844C55.7353 67.5559 55.7467 67.5286 55.7668 67.5085C55.7869 67.4883 55.8143 67.477 55.8427 67.477H57.2435C57.2878 67.477 57.3415 67.5004 57.3415 67.5424V71.8357C57.3415 71.9112 57.3715 71.9836 57.425 72.0371C57.4784 72.0905 57.5508 72.1205 57.6264 72.1205H58.1213C58.1977 72.1205 58.2711 72.0908 58.3261 72.0377C58.381 71.9845 58.413 71.9121 58.4154 71.8357V67.6334V67.4887Z" fill="#0A84FF"/>
<line x1="1" y1="134" x2="159" y2="134" stroke="#0A84FF" stroke-width="2" stroke-linecap="round"/>
</svg>
