<svg width="35" height="35" viewBox="0 0 35 35" fill="none" xmlns="http://www.w3.org/2000/svg">
<path d="M34.1074 29.0753H34.1102V29.0586L34.1074 29.0753Z" fill="#272536"/>
<path d="M12.8201 19.4481C12.7936 19.438 12.7645 19.4316 12.7354 19.4316H3.66466C1.66413 19.4316 0.0245519 21.0478 0.00119981 23.0395C-1.03745e-07 23.0483 0 23.0559 0 23.0649V31.631C0 31.746 0.0195217 31.8636 0.0530729 31.9586C0.354711 33.72 1.87218 34.9997 3.66466 34.9997H12.7354C12.7619 34.9997 12.7859 34.9947 12.81 34.9846C14.4868 34.8554 15.845 33.6175 16.1155 31.9952C16.1611 31.8713 16.1813 31.7472 16.1813 31.6285V23.0649C16.1813 23.056 16.1813 23.0484 16.1813 23.0408C16.1586 21.1629 14.6942 19.6024 12.8201 19.4481ZM13.9229 23.2646V31.1668C13.9229 32.0393 13.2109 32.7476 12.3345 32.7476H4.15911C4.14397 32.7449 4.12685 32.7449 4.11102 32.7476H3.84616C2.97166 32.7476 2.2597 32.0393 2.2597 31.1668V23.2646C2.2597 22.3945 2.97166 21.6852 3.84616 21.6852H12.3345C13.2109 21.6852 13.9229 22.3945 13.9229 23.2646Z" fill="#0A84FF"/>
<path d="M34.9997 3.6084C34.9782 1.73114 33.5126 0.170618 31.6397 0.0163833C31.6119 0.00632258 31.584 0 31.5538 0H23.4441C21.4346 0 19.7894 1.62874 19.7793 3.63304V12.1992C19.7793 12.3181 19.7996 12.4401 19.8325 12.5268C20.1335 14.2877 21.6495 15.5674 23.4441 15.5674H31.5538C31.5803 15.5674 31.6044 15.5624 31.6283 15.5529C33.304 15.4233 34.6646 14.1852 34.9364 12.5628C34.9795 12.4414 34.9997 12.3181 34.9997 12.1966V3.633C34.9997 3.62418 34.9997 3.61657 34.9997 3.6084ZM32.7411 3.83278V11.7345C32.7411 12.6071 32.0292 13.3151 31.1554 13.3151H23.6236C22.7498 13.3151 22.0378 12.607 22.0378 11.7345V3.83278C22.0378 2.9622 22.7499 2.25273 23.6236 2.25273H31.1554C32.0292 2.25273 32.7411 2.9622 32.7411 3.83278Z" fill="#0A84FF"/>
<path d="M31.6397 19.4481C31.6119 19.438 31.584 19.4316 31.5538 19.4316H23.4441C21.4346 19.4316 19.7894 21.0605 19.7793 23.0649V31.631C19.7793 31.7498 19.7996 31.8724 19.8325 31.9586C20.1335 33.72 21.6495 34.9997 23.4441 34.9997H31.5538C31.5803 34.9997 31.6044 34.9947 31.6283 34.9846C33.304 34.8554 34.6646 33.6175 34.9364 31.9952C34.9795 31.8738 34.9997 31.7499 34.9997 31.6285V23.0649C34.9997 23.056 34.9997 23.0484 34.9997 23.0408C34.9782 21.1629 33.5126 19.6024 31.6397 19.4481ZM32.7411 23.2646V31.1668C32.7411 32.0393 32.0292 32.7476 31.1554 32.7476H23.6236C22.7498 32.7476 22.0378 32.0393 22.0378 31.1668V23.2646C22.0378 22.3945 22.7499 21.6865 23.6236 21.6865H31.1554C32.0292 21.6864 32.7411 22.3945 32.7411 23.2646Z" fill="#0A84FF"/>
<path d="M12.8201 0.0163833C12.7936 0.00632258 12.7645 0 12.7354 0H3.66466C1.66413 0 0.0245519 1.61614 0.00119981 3.6072C-1.03745e-07 3.61666 0 3.62423 0 3.63304V12.1992C0 12.3144 0.0195217 12.432 0.0530729 12.5268C0.354711 14.2877 1.87218 15.5674 3.66466 15.5674H12.7354C12.7619 15.5674 12.7859 15.5624 12.81 15.5529C14.4868 15.4233 15.845 14.1852 16.1155 12.5628C16.1611 12.4364 16.1813 12.3168 16.1813 12.1966V3.633C16.1813 3.62418 16.1813 3.61661 16.1813 3.6084C16.1586 1.73119 14.6942 0.170664 12.8201 0.0163833ZM13.9229 3.83283V11.7345C13.9229 12.6071 13.2109 13.3152 12.3345 13.3152H3.84616C2.97166 13.3152 2.2597 12.6071 2.2597 11.7345V3.83283C2.2597 2.96225 2.97166 2.25278 3.84616 2.25278H12.3345C13.2109 2.25278 13.9229 2.96225 13.9229 3.83283Z" fill="#0A84FF"/>
</svg>
