<svg width="193" height="122" viewBox="0 0 193 122" fill="none" xmlns="http://www.w3.org/2000/svg">
<rect x="64.4287" y="1" width="62.0001" height="22.5715" rx="2" fill="white" stroke="#0A84FF" stroke-width="2"/>
<mask id="path-2-inside-1_38_994" fill="white">
<path d="M72.2859 90.2841C72.2859 93.0981 71.7316 95.8846 70.6547 98.4844C69.5779 101.084 67.9994 103.447 66.0096 105.436C64.0198 107.426 61.6575 109.005 59.0577 110.082C56.4578 111.158 53.6713 111.713 50.8573 111.713C48.0433 111.713 45.2568 111.158 42.6569 110.082C40.0571 109.005 37.6948 107.426 35.705 105.436C33.7152 103.447 32.1368 101.084 31.0599 98.4844C29.983 95.8846 29.4287 93.0981 29.4287 90.2841L50.8573 90.2841H72.2859Z"/>
</mask>
<path d="M72.2859 90.2841C72.2859 93.0981 71.7316 95.8846 70.6547 98.4844C69.5779 101.084 67.9994 103.447 66.0096 105.436C64.0198 107.426 61.6575 109.005 59.0577 110.082C56.4578 111.158 53.6713 111.713 50.8573 111.713C48.0433 111.713 45.2568 111.158 42.6569 110.082C40.0571 109.005 37.6948 107.426 35.705 105.436C33.7152 103.447 32.1368 101.084 31.0599 98.4844C29.983 95.8846 29.4287 93.0981 29.4287 90.2841L50.8573 90.2841H72.2859Z" fill="white" stroke="#0A84FF" stroke-width="4" mask="url(#path-2-inside-1_38_994)"/>
<mask id="path-3-inside-2_38_994" fill="white">
<path d="M163.143 92C163.143 95.9397 162.367 99.8408 160.859 103.481C159.351 107.12 157.142 110.427 154.356 113.213C151.57 115.999 148.263 118.209 144.623 119.716C140.983 121.224 137.082 122 133.143 122C129.203 122 125.302 121.224 121.662 119.716C118.022 118.209 114.715 115.999 111.929 113.213C109.144 110.427 106.934 107.12 105.426 103.481C103.919 99.8408 103.143 95.9397 103.143 92L133.143 92H163.143Z"/>
</mask>
<path d="M163.143 92C163.143 95.9397 162.367 99.8408 160.859 103.481C159.351 107.12 157.142 110.427 154.356 113.213C151.57 115.999 148.263 118.209 144.623 119.716C140.983 121.224 137.082 122 133.143 122C129.203 122 125.302 121.224 121.662 119.716C118.022 118.209 114.715 115.999 111.929 113.213C109.144 110.427 106.934 107.12 105.426 103.481C103.919 99.8408 103.143 95.9397 103.143 92L133.143 92H163.143Z" fill="white" stroke="#0A84FF" stroke-width="4" mask="url(#path-3-inside-2_38_994)"/>
<rect x="1" y="23.2852" width="190.572" height="73.8368" rx="9" fill="white" stroke="#0A84FF" stroke-width="2"/>
<path d="M2 82.5723L190.572 82.5723" stroke="#0A84FF" stroke-width="1.5" stroke-linecap="round"/>
<path d="M2 39.7148L190.572 39.7149" stroke="#0A84FF" stroke-width="1.5" stroke-linecap="round"/>
<rect x="64.3604" y="39.4688" width="62.3429" height="43.4858" rx="3" fill="white" stroke="#0A84FF" stroke-width="2"/>
<path d="M111.346 56.8633H108.533C107.982 56.8641 107.453 57.0838 107.064 57.4741C106.674 57.8644 106.455 58.3934 106.455 58.945V62.769C106.455 63.042 106.509 63.3122 106.613 63.5644C106.718 63.8166 106.871 64.0457 107.064 64.2387C107.257 64.4317 107.486 64.5848 107.738 64.6892C107.99 64.7937 108.261 64.8474 108.533 64.8474H111.346C111.898 64.8474 112.427 64.6286 112.817 64.2389C113.207 63.8492 113.427 63.3205 113.428 62.769V58.945C113.428 58.3929 113.208 57.8634 112.818 57.473C112.428 57.0826 111.898 56.8633 111.346 56.8633ZM111.933 62.583C111.934 62.6843 111.914 62.7846 111.876 62.8782C111.837 62.9718 111.78 63.0569 111.709 63.1285C111.637 63.2001 111.552 63.2568 111.459 63.2953C111.365 63.3339 111.265 63.3535 111.163 63.3531H108.716C108.615 63.3535 108.515 63.3339 108.421 63.2953C108.327 63.2568 108.242 63.2001 108.171 63.1285C108.099 63.0569 108.042 62.9718 108.004 62.8782C107.965 62.7846 107.946 62.6843 107.946 62.583V59.1375C107.946 58.9333 108.027 58.7374 108.172 58.593C108.316 58.4486 108.512 58.3674 108.716 58.3674H111.163C111.368 58.3674 111.563 58.4486 111.708 58.593C111.852 58.7374 111.933 58.9333 111.933 59.1375V62.583Z" fill="#0A84FF"/>
<path d="M103.016 56.875H98.5459C98.4891 56.875 98.4328 56.8862 98.3804 56.9081C98.3279 56.9299 98.2803 56.962 98.2402 57.0023C98.2002 57.0426 98.1685 57.0905 98.1471 57.1431C98.1256 57.1958 98.1148 57.2521 98.1152 57.309V64.4187C98.1152 64.5329 98.1606 64.6424 98.2414 64.7232C98.3222 64.804 98.4317 64.8493 98.5459 64.8493H102.977C103.256 64.8493 103.533 64.7943 103.791 64.6874C104.049 64.5805 104.284 64.4238 104.481 64.2263C104.679 64.0287 104.835 63.7942 104.942 63.5361C105.049 63.278 105.104 63.0014 105.104 62.722V58.9632C105.104 58.4094 104.884 57.8782 104.493 57.4866C104.101 57.095 103.57 56.875 103.016 56.875ZM103.613 62.5817C103.613 62.6832 103.593 62.7838 103.554 62.8776C103.515 62.9714 103.458 63.0567 103.387 63.1285C103.315 63.2003 103.23 63.2572 103.136 63.2961C103.042 63.335 102.941 63.355 102.84 63.355H99.8315C99.7744 63.355 99.7196 63.3323 99.6792 63.2919C99.6388 63.2515 99.6162 63.1967 99.6162 63.1396V58.5847C99.6162 58.5259 99.6395 58.4694 99.6811 58.4278C99.7227 58.3862 99.7792 58.3628 99.838 58.3628H102.859C102.958 58.3607 103.056 58.3783 103.148 58.4148C103.24 58.4513 103.323 58.5059 103.394 58.5752C103.464 58.6446 103.52 58.7274 103.557 58.8187C103.595 58.9101 103.614 59.008 103.613 59.1068V62.5817Z" fill="#0A84FF"/>
<path d="M91.2142 58.3674H96.1443C96.2433 58.3666 96.3379 58.3267 96.4075 58.2564C96.4772 58.1861 96.5163 58.0912 96.5163 57.9922V57.2385C96.5167 57.1894 96.5074 57.1407 96.4889 57.0952C96.4704 57.0497 96.4431 57.0083 96.4085 56.9734C96.3739 56.9385 96.3327 56.9108 96.2874 56.8919C96.2421 56.873 96.1934 56.8633 96.1443 56.8633H91.0575C90.8602 56.8633 90.6647 56.9022 90.4824 56.9778C90.3001 57.0535 90.1345 57.1643 89.9951 57.304C89.8557 57.4438 89.7452 57.6096 89.67 57.7921C89.5947 57.9745 89.5562 58.1701 89.5566 58.3674V63.415C89.5718 63.8028 89.7366 64.1697 90.0165 64.4386C90.2963 64.7075 90.6695 64.8575 91.0575 64.8572H96.1443C96.1931 64.8572 96.2415 64.8476 96.2866 64.8289C96.3318 64.8102 96.3728 64.7828 96.4073 64.7483C96.4419 64.7137 96.4693 64.6727 96.488 64.6276C96.5066 64.5825 96.5163 64.5341 96.5163 64.4852V63.7217C96.5163 63.6228 96.4772 63.5278 96.4075 63.4576C96.3379 63.3873 96.2433 63.3474 96.1443 63.3465H91.2142C91.1692 63.3465 91.126 63.3286 91.0942 63.2968C91.0624 63.265 91.0445 63.2219 91.0445 63.1769V61.7771C91.0445 61.7321 91.0624 61.6889 91.0942 61.6571C91.126 61.6253 91.1692 61.6074 91.2142 61.6074H96.141C96.1906 61.6074 96.2397 61.5976 96.2854 61.5786C96.3311 61.5595 96.3726 61.5316 96.4075 61.4964C96.4424 61.4612 96.47 61.4194 96.4886 61.3735C96.5073 61.3276 96.5167 61.2785 96.5163 61.2289V60.4818C96.5167 60.4324 96.5073 60.3834 96.4886 60.3377C96.4699 60.2919 96.4423 60.2504 96.4073 60.2155C96.3724 60.1805 96.3309 60.1529 96.2851 60.1342C96.2394 60.1155 96.1904 60.1061 96.141 60.1065H91.2142C91.1692 60.1065 91.126 60.0887 91.0942 60.0568C91.0624 60.025 91.0445 59.9819 91.0445 59.9369V58.5338C91.0445 58.5117 91.0489 58.4898 91.0575 58.4694C91.066 58.449 91.0786 58.4305 91.0944 58.415C91.1102 58.3995 91.1289 58.3873 91.1495 58.3792C91.17 58.371 91.192 58.367 91.2142 58.3674Z" fill="#0A84FF"/>
<path d="M88.1089 58.3812C88.111 58.0234 87.9861 57.6766 87.7565 57.4023C87.6168 57.2319 87.4411 57.0946 87.2419 57.0003C87.0427 56.9061 86.825 56.8573 86.6047 56.8574H80.6304C80.4345 56.8574 80.2405 56.8961 80.0596 56.9713C79.8786 57.0465 79.7143 57.1567 79.5761 57.2955C79.4378 57.4344 79.3284 57.5991 79.254 57.7804C79.1796 57.9617 79.1417 58.1559 79.1426 58.3518V64.4565C79.1426 64.5621 79.1845 64.6634 79.2592 64.738C79.3338 64.8127 79.4351 64.8546 79.5407 64.8546H80.2324C80.338 64.8546 80.4392 64.8127 80.5139 64.738C80.5885 64.6634 80.6304 64.5621 80.6304 64.4565V58.5149C80.6312 58.4765 80.6464 58.4397 80.6729 58.4119C80.6995 58.3841 80.7356 58.3673 80.774 58.3648H82.7317C82.7718 58.3648 82.8103 58.3805 82.839 58.4086C82.8677 58.4367 82.8842 58.4748 82.8851 58.5149V64.4729C82.8851 64.575 82.9256 64.6729 82.9978 64.7451C83.07 64.8173 83.168 64.8579 83.2701 64.8579H83.9846C84.0853 64.8553 84.1811 64.8138 84.2518 64.7419C84.3224 64.6701 84.3623 64.5736 84.3631 64.4729V58.5149C84.3631 58.4751 84.3789 58.437 84.4071 58.4088C84.4352 58.3807 84.4734 58.3648 84.5132 58.3648H86.4709C86.5329 58.3648 86.608 58.3975 86.608 58.4562V64.4565C86.608 64.5621 86.6499 64.6634 86.7245 64.738C86.7992 64.8127 86.9004 64.8546 87.006 64.8546H87.6977C87.8046 64.8547 87.9072 64.8131 87.9839 64.7388C88.0607 64.6645 88.1055 64.5633 88.1089 64.4565V58.5835V58.3812Z" fill="#0A84FF"/>
</svg>
