<svg width="41" height="35" viewBox="0 0 41 35" fill="none" xmlns="http://www.w3.org/2000/svg">
<path d="M0 27.5391V2.0188C0 0.897245 0.897245 0 2.0188 0H38.2785C39.4001 0 40.2973 0.897245 40.2973 2.0188V27.5391C40.2973 28.6607 39.4001 29.5579 38.2785 29.5579H2.04635C0.924792 29.5855 0 28.6607 0 27.5391ZM3.47879 26.9488H36.8776C37.3262 26.9488 37.6922 26.5829 37.6922 26.1342V3.45125C37.6922 3.00262 37.3262 2.63664 36.8776 2.63664H3.47879C3.03017 2.63664 2.66419 3.00262 2.66419 3.45125V26.1106C2.63664 26.5868 3.03017 26.9488 3.47879 26.9488Z" fill="#0A84FF"/>
<path d="M33.5678 18.8465H26.5551L19.0387 11.7512L13.4034 18.8465H6.78425C6.05622 18.8465 5.46593 18.2562 5.46593 17.5282C5.46593 16.8002 6.05622 16.2099 6.78425 16.2099H12.1402L18.7593 7.88281L27.5941 16.2414H33.5678C34.2958 16.2414 34.8861 16.8317 34.8861 17.5597C34.8861 18.2562 34.2958 18.8465 33.5678 18.8465ZM5.04879 32.3642H35.0239C35.7519 32.3642 36.3422 32.9545 36.3422 33.6826C36.3422 34.4106 35.7519 35.0009 35.0239 35.0009H5.04879C4.32076 35.0009 3.73047 34.4106 3.73047 33.6826C3.73047 32.9506 4.31683 32.3642 5.04879 32.3642Z" fill="#0A84FF"/>
</svg>
