<svg width="34" height="35" viewBox="0 0 34 35" fill="none" xmlns="http://www.w3.org/2000/svg">
<path d="M26.0407 22.0215L27.9665 24.7847C31.3158 21.7703 33.4928 17.3325 33.4928 12.3923C33.4928 7.45215 31.3158 3.01435 27.9665 0L26.0407 2.76316C28.5526 5.19138 30.1435 8.6244 30.1435 12.3923C30.1435 16.1603 28.5526 19.5933 26.0407 22.0215ZM5.52631 24.7847L7.45215 22.0215C4.94019 19.5933 3.34928 16.1603 3.34928 12.3923C3.34928 8.6244 4.94019 5.19138 7.45215 2.76316L5.52631 0C2.17703 3.01435 0 7.45215 0 12.3923C0 17.3325 2.17703 21.7703 5.52631 24.7847Z" fill="#0A84FF"/>
<path d="M9.4614 19.2574L11.471 16.4106C10.6336 15.322 10.1313 13.8986 10.1313 12.3914C10.1313 10.8842 10.6336 9.46079 11.471 8.37228L9.4614 5.52539C7.78676 7.28376 6.69824 9.71199 6.69824 12.3914C6.69824 15.0708 7.70303 17.4991 9.4614 19.2574ZM24.0308 19.2574C25.7054 17.4991 26.7939 15.0708 26.7939 12.3914C26.7939 9.71199 25.7891 7.28376 24.0308 5.52539L22.0212 8.37228C22.8585 9.46079 23.3609 10.8842 23.3609 12.3914C23.3609 13.8986 22.8585 15.322 22.0212 16.4106L24.0308 19.2574Z" fill="#0A84FF"/>
<path d="M21.7699 24.952H18.4206V14.9042C19.3417 14.3181 20.0953 13.5645 20.0953 12.3922C20.0953 10.5501 18.5881 9.04297 16.746 9.04297C14.9039 9.04297 13.3967 10.5501 13.3967 12.3922C13.3967 13.5645 14.1503 14.3181 15.0714 14.9042V24.952H11.7221V28.3013H0.836914V31.6506H11.7221V34.9999H21.7699V31.6506H32.6551V28.3013H21.7699V24.952ZM18.4206 31.6506H15.0714V28.3013H18.4206V31.6506Z" fill="#0A84FF"/>
</svg>
