<svg width="161" height="97" viewBox="0 0 161 97" fill="none" xmlns="http://www.w3.org/2000/svg">
<rect x="9.5" y="85.5" width="16" height="11" fill="white" stroke="#0A84FF"/>
<rect x="21.25" y="1.25" width="9.5" height="16.5" rx="1.75" fill="white" stroke="#0A84FF" stroke-width="1.5"/>
<rect x="130.25" y="1.25" width="9.5" height="16.5" rx="1.75" fill="white" stroke="#0A84FF" stroke-width="1.5"/>
<rect x="107.5" y="85.5" width="16" height="11" fill="white" stroke="#0A84FF"/>
<rect x="133.5" y="85.5" width="16" height="11" fill="white" stroke="#0A84FF"/>
<rect x="35.5" y="85.5" width="26" height="11" fill="white" stroke="#0A84FF"/>
<rect x="1" y="11" width="159" height="79" rx="4" fill="white" stroke="#0A84FF" stroke-width="2"/>
<circle cx="126.5" cy="23.5" r="1.5" fill="#0A84FF"/>
<circle cx="134.5" cy="23.5" r="1.5" fill="#0A84FF"/>
<circle cx="142.5" cy="23.5" r="1.5" fill="#0A84FF"/>
<circle cx="150.5" cy="23.5" r="1.5" fill="#0A84FF"/>
<path d="M88.9502 49.8711L90.1223 54.816H91.9171L90.7084 49.8711H88.9502Z" fill="#0A84FF"/>
<path d="M82.4673 54.816H84.2987L85.5075 49.8711H83.7127L82.4673 54.816Z" fill="#0A84FF"/>
<path d="M85.5074 48.1866L84.4818 45.4395H82.687L83.7126 48.1866H85.5074Z" fill="#0A84FF"/>
<path d="M88.1448 45H86.3133V48.6629H82.3208V49.3954H86.3133V54.8165H88.1448V49.3954H92.1006V48.6629H88.1448V45Z" fill="#0A84FF"/>
<path d="M91.734 45.4395H89.9392L88.9502 48.1866H90.7084L91.734 45.4395Z" fill="#0A84FF"/>
<path d="M100.452 54.817H102.723L100.598 52.1797L102.43 49.6523H95.5801L97.4848 52.1797L95.3604 54.817H97.6313L99.0598 53.0954L100.452 54.817ZM99.8657 50.3849L99.0232 51.5204L98.1808 50.3849H99.8657Z" fill="#0A84FF"/>
<path d="M106.606 54.8169H108.071L108.547 51.85L109.023 54.8169H110.268L109.865 51.7035H108.62L109.206 47.6377V51.4471H110.268V45.3301H108.986H106.422V51.4471H107.265L106.606 54.8169ZM107.485 45.9894H109.17V46.8319H107.888L107.485 49.4691V45.9894Z" fill="#0A84FF"/>
<path d="M106.203 50.6777H104.554L103.785 54.8534H105.47L106.203 50.6777Z" fill="#0A84FF"/>
<path d="M111.77 45.3301H110.451V53.3884H111.77V45.3301Z" fill="#0A84FF"/>
<path d="M113.455 45.3301H112.1V53.7913V53.8279V54.8535H113.455V45.3301Z" fill="#0A84FF"/>
<path d="M106.203 47.3076L105.397 45H103.712L104.554 47.3076H106.203Z" fill="#0A84FF"/>
<path d="M104.554 49.9081H106.203L105.47 47.8203H103.785L104.554 49.9081Z" fill="#0A84FF"/>
<path d="M124.334 54.0849H122.063V50.4587H124.114V49.6895H118.217V50.4587H120.268V54.0849H117.997V54.8541H124.334V54.0849Z" fill="#0A84FF"/>
<path d="M117.191 51.1531L117.777 50.9699V50.0542L117.191 50.2007V47.2338H117.777V46.5012H117.191V45.2559H115.396V46.5012H114.517V47.2338H115.396V50.6769L114.517 50.8967V51.8124L115.396 51.556V51.9955V53.7903V54.8526H117.191V51.1531Z" fill="#0A84FF"/>
<path d="M101.917 46.3926H100.195V46.9786H97.7412V46.3926H96.0197V46.9786H95.397V47.6746H96.0197V49.2862H101.917V47.6746H102.759V46.9786H101.917V46.3926ZM100.195 48.5903H97.7412V47.7112H100.195V48.5903Z" fill="#0A84FF"/>
<path d="M99.7191 45.3297H99.536C99.4627 45.1465 99.4261 45 99.4261 45H97.7412L97.8511 45.3297H93.6022L93.0527 54.8165H94.7743L95.3237 46.0256H102.759V45.3297H99.7191Z" fill="#0A84FF"/>
<path d="M124.334 45.3297H121.99C121.916 45.1465 121.88 45 121.88 45H120.158L120.268 45.3297H117.997V47.1245H119.169L118.144 49.2489H119.755L121.074 46.4285H119.462L119.242 46.9413V46.0256H122.979V46.9413L122.795 46.4651H121.257L122.539 49.2855H124.151L123.162 47.1977H124.334V45.3297Z" fill="#0A84FF"/>
<path d="M48.0729 47.3446C48.0729 46.9417 47.9263 46.5388 47.6699 46.2457C47.3769 45.8794 46.9007 45.623 46.3879 45.623H43.8606H42.2489H39.7215H39.6849C38.7692 45.623 38 46.3556 38 47.308V47.3446V47.601V54.1941C38 54.4505 38.1831 54.6337 38.4395 54.6337H39.2087C39.4651 54.6337 39.6483 54.4505 39.6483 54.1941V47.601V47.4911C39.6483 47.3812 39.7215 47.308 39.8314 47.308H42.0291C42.139 47.308 42.2123 47.3812 42.2123 47.4911V47.601V54.1941C42.2123 54.4505 42.3954 54.6337 42.6518 54.6337H43.4577C43.7141 54.6337 43.8972 54.4505 43.8972 54.1941V47.601V47.4911C43.8972 47.3812 43.9705 47.308 44.0803 47.308H46.2781C46.3513 47.308 46.4246 47.3446 46.4246 47.4178C46.4246 47.8208 46.4246 54.1575 46.4246 54.1575C46.4246 54.4139 46.6077 54.5971 46.8641 54.5971H47.6333C47.8897 54.5971 48.1095 54.4139 48.1095 54.1575V47.5644V47.3446H48.0729Z" fill="#0A84FF"/>
<path d="M51.5526 47.3084H57.0835C57.3033 47.3084 57.4865 47.1253 57.4865 46.9055V46.0631C57.4865 45.8433 57.3033 45.6602 57.0835 45.6602H51.4061C50.4904 45.6602 49.7212 46.4294 49.7212 47.3451V49.2864V50.9713V52.9492V52.9859C49.7578 53.9016 50.4904 54.5975 51.4061 54.5975H57.1202C57.3399 54.5975 57.5231 54.4144 57.5231 54.1946V53.3522C57.5231 53.1324 57.3399 52.9492 57.1202 52.9492H52.9811H51.5526C51.4427 52.9492 51.3695 52.876 51.3695 52.7661V51.1544C51.3695 51.0446 51.4427 50.9713 51.5526 50.9713H52.9811H57.0835C57.3033 50.9713 57.5231 50.7882 57.5231 50.5318V49.6893C57.5231 49.4695 57.3399 49.2498 57.0835 49.2498H52.9811H51.5526C51.4427 49.2498 51.3695 49.1765 51.3695 49.0666V47.4916C51.3695 47.4183 51.4794 47.3084 51.5526 47.3084Z" fill="#0A84FF"/>
<path d="M64.8122 45.6602H59.794C59.5376 45.6602 59.3179 45.8799 59.3179 46.1363V54.1214C59.3179 54.3778 59.5376 54.5975 59.794 54.5975H64.7755C66.0942 54.5975 67.1564 53.5353 67.1564 52.2167V48.0044C67.1564 46.6858 66.1308 45.6602 64.8122 45.6602ZM65.4715 52.0335C65.4715 52.5097 65.0686 52.9126 64.5924 52.9126H61.2226C61.076 52.9126 60.9662 52.8027 60.9662 52.6562V47.5648C60.9662 47.4183 61.076 47.3084 61.2226 47.3084H64.629C65.0686 47.3084 65.4715 47.6747 65.4715 48.1509V52.0335Z" fill="#0A84FF"/>
<path d="M74.1891 45.623H71.0391C69.7571 45.623 68.6948 46.6853 68.6948 47.9673V52.2528C68.6948 53.5348 69.7571 54.5971 71.0391 54.5971H74.1891C75.4711 54.5971 76.5333 53.5348 76.5333 52.2528V47.9673C76.4967 46.6853 75.4711 45.623 74.1891 45.623ZM74.8484 52.0697C74.8484 52.5459 74.4455 52.9488 73.9693 52.9488H71.2222C70.746 52.9488 70.3431 52.5459 70.3431 52.0697V48.187C70.3431 47.7109 70.746 47.308 71.2222 47.308H73.9693C74.4455 47.308 74.8484 47.7109 74.8484 48.187V52.0697Z" fill="#0A84FF"/>
<path d="M79.5734 55.0001H79.1338C79.0239 55.0001 78.9141 54.8902 78.9141 54.7803V45.4034C78.9141 45.2935 79.0239 45.1836 79.1338 45.1836H79.5734C79.6833 45.1836 79.7931 45.2935 79.7931 45.4034V54.8169C79.7931 54.9268 79.6833 55.0001 79.5734 55.0001Z" fill="#0A84FF"/>
</svg>
